<svg xmlns="http://www.w3.org/2000/svg" xmlns:xlink="http://www.w3.org/1999/xlink" viewBox="0 0 89.49 102.16"><defs><style>.cls-1{fill:none;}.cls-2{fill:#90b8c6;}.cls-3{fill:#629faf;}.cls-4{fill:url(#linear-gradient);}.cls-5{clip-path:url(#clip-path);}.cls-6{fill:#9c252d;}.cls-7{fill:#565656;}</style><linearGradient id="linear-gradient" x1="38.3" x2="38.3" y2="102.16" gradientUnits="userSpaceOnUse"><stop offset="0" stop-color="#fff" stop-opacity="0.6"/><stop offset="1" stop-color="#fff"/></linearGradient><clipPath id="clip-path"><circle class="cls-1" cx="31.76" cy="30.92" r="25.92"/></clipPath></defs><title>icon_full</title><g id="Layer_2" data-name="Layer 2"><g id="templates"><circle class="cls-2" cx="44.72" cy="48.84" r="44.72"/><path class="cls-3" d="M89.22,43.94A44.72,44.72,0,1,1,40,4.38,44.87,44.87,0,0,1,89.22,43.94ZM20.7,15.37C24,17,23.92,17,21.84,19.09a3.31,3.31,0,0,0-.54,2.51c.16,1,1.07,1.88,1.12,2.84a4.14,4.14,0,0,1-1,2.85c-.43.43-1.67.1-2.54,0a7,7,0,0,1-1.38-.47c.58,2.83-1.33,3.59-3.08,4.77a10.23,10.23,0,0,0-3.77,4.27,13.57,13.57,0,0,1-4.37,6.21c-2.15,1.63-2.42,3.09-1.38,5.6a17.41,17.41,0,0,0,1.19,2.22c.84,1.42,1.84,2.36,3.62,1.26a1.78,1.78,0,0,1,1.5-.14c3.42,1.9,7.11,3.51,10,6a12.82,12.82,0,0,0,4.36,2.76c1.17.38,2.38.63,3.54,1,3.17,1,3.64,2.27,2.62,5.42a20.44,20.44,0,0,0-.37,4.48c-.08.94.11,2.44-.37,2.72-3,1.69-3.7,4.23-3.34,7.36,0,.35-.24.73-.33,1.11a4.47,4.47,0,0,0,2.94,5.52c11.16,4,22.24,3.74,32.76-1.74C78.66,77.59,86.2,64.39,86,46.84a68.19,68.19,0,0,0-1.21-8.78c-1.11,1.5-2.13,2.8-3,4.17-.24.35-.4,1.1-.2,1.35,2.08,2.65.91,4.91-.61,7.27s-2.48,4.78-1.76,7.72a6.25,6.25,0,0,1-.47,3.38,34.54,34.54,0,0,1-2.81,6.39,46.18,46.18,0,0,1-5.67,7.54c-1.77,1.85-3.33,1.35-4.4-.93s-2.11-4.72-3.08-7.12a3.1,3.1,0,0,1-.22-2.06c1.16-2.86.43-5.27-1.32-7.61A11.93,11.93,0,0,1,60,55.47c-1.35-3.3-3-3.86-6.14-2.53-1.6.67-3.57,1.42-5.11,1.05a10.09,10.09,0,0,1-7.34-6.39c-.62-1.68-.38-3.68-.53-5.54a9.2,9.2,0,0,1,2.23-6.64c1.26-1.6,2.42-3.27,3.65-4.94-2.51-1.45-3.24-2.88-2.85-5.23a5,5,0,0,1,4.32-4.35,7.11,7.11,0,0,0,2.27-.46c1.06-.63,2.6-1.14,1.91-3-.86-2.25-.45-3.24,1.64-4.44,1.49-.86,2.89-1.87,4.33-2.82l-.08-.79c-4-.62-7.94-1.27-11.93-1.82-.37-.05-.89.48-1.25.84-1.62,1.63-2.93,4-4.88,4.79-4,1.59-8.06,2.67-11.18,5.84a1.81,1.81,0,0,1-1.77.14,2.54,2.54,0,0,1-.59-1.87,40.33,40.33,0,0,1,.64-4.09ZM15.59,78a14.87,14.87,0,0,0-4.94-10.17c-2.84-2.56-3.67-6.21-4-9.87-.18-2.13-1.36-3.42-3-5.15C4.92,62.78,8.71,71,15.59,78ZM60.91,29.89c1,.79,1.81,1.93,2.74,2a33.23,33.23,0,0,0,6.71-.06c.54,0,1.24-.86,1.41-1.46.09-.31-.75-1.22-1.27-1.32a39.41,39.41,0,0,0-4-.23c-.91-.07-1.81-.26-2.91-.42Zm-.6-1.42.35-.33a5.15,5.15,0,0,0-1.05-.95c-.74-.37-1.57-.57-2.33-.9-3.08-1.33-4-.92-5.09,2.34C54.9,27.84,57.58,26.6,60.31,28.47Z"/><path class="cls-4" d="M58.39,15.15A30.84,30.84,0,1,0,46,58.23l1.94,3.28a3.17,3.17,0,0,0-.23,3.55l21,35.55A3.18,3.18,0,0,0,73,101.73l1-.59a3.18,3.18,0,0,0,1.12-4.34l-21-35.55a3.17,3.17,0,0,0-3.22-1.51L49,56.45A30.88,30.88,0,0,0,58.39,15.15ZM9.59,44A25.84,25.84,0,1,1,45,53.08,25.87,25.87,0,0,1,9.59,44Z"/><g class="cls-5"><g id="f22HAf.tif"><path class="cls-6" d="M9.88,67.25a1.82,1.82,0,0,1-1.26-2.06c.19-4.49.33-9,.5-13.49.09-2.32.21-4.63.26-6.94,0-1.3,0-2.61-.07-3.92s-.08-2.49-.13-3.73a2.17,2.17,0,0,0-.12-.65c-.14,1.35-.28,2.7-.42,4.06-.19,1.94-.37,3.88-.57,5.81a1.38,1.38,0,0,1-2.23,1.05,1.26,1.26,0,0,1-.5-1.22c.13-1.47.26-2.95.4-4.42S6,39,6.2,37.56s.3-2.72.56-4.06a4.31,4.31,0,0,1,2.42-3,7.08,7.08,0,0,1,3.36-.74,28.46,28.46,0,0,1,3.71.15,5,5,0,0,1,4.07,2.89,6.65,6.65,0,0,1,.43,2c.3,2.52.57,5,.83,7.57.13,1.26.24,2.53.34,3.79a1.27,1.27,0,0,1-.82,1.37,1.36,1.36,0,0,1-1.87-1c-.13-1-.2-2-.3-3q-.33-3.22-.66-6.43a3.06,3.06,0,0,0-.11-.67,4.47,4.47,0,0,0-.07.47c-.15,3.92-.28,7.83-.09,11.75.17,3.42.26,6.85.39,10.27.08,2.08.14,4.16.26,6.24a1.8,1.8,0,0,1-1.26,2.06H16.7a1.94,1.94,0,0,1-1.32-1.92c-.15-1.87-.36-3.73-.55-5.59q-.49-4.8-1-9.6c-.05-.51-.12-1-.18-1.51a9.21,9.21,0,0,0-.27,1.59c-.21,2.15-.42,4.29-.64,6.44-.29,2.89-.62,5.78-.89,8.68a1.94,1.94,0,0,1-1.31,1.92Z"/><path class="cls-6" d="M14.1,21a10.44,10.44,0,0,1,1.82.71,3.83,3.83,0,0,1-.41,6.68,4.1,4.1,0,0,1-5.58-1.86A3.84,3.84,0,0,1,12.3,21.2c.29-.1.58-.16.87-.25Z"/></g><g id="f22HAf.tif-2" data-name="f22HAf.tif"><path class="cls-7" d="M45.35,63.38a1.27,1.27,0,0,1-.88-1.45c.13-3.15.23-6.3.35-9.45.06-1.62.15-3.24.18-4.87,0-.91,0-1.83-.05-2.74s-.06-1.74-.09-2.61a1.52,1.52,0,0,0-.08-.45c-.1.95-.2,1.89-.29,2.84-.13,1.36-.26,2.72-.4,4.07a1,1,0,0,1-1.57.74.89.89,0,0,1-.35-.85c.09-1,.18-2.06.28-3.09s.2-2,.31-2.94.21-1.91.39-2.85a3,3,0,0,1,1.69-2.08,5,5,0,0,1,2.36-.52,19.94,19.94,0,0,1,2.6.11,3.49,3.49,0,0,1,2.85,2,4.66,4.66,0,0,1,.3,1.41c.21,1.77.4,3.53.58,5.3.09.88.17,1.77.24,2.66a.89.89,0,0,1-.57,1,1,1,0,0,1-1.31-.72c-.09-.69-.14-1.39-.21-2.09l-.46-4.51a2.15,2.15,0,0,0-.08-.47,3.13,3.13,0,0,0,0,.33c-.1,2.74-.19,5.49-.06,8.23.12,2.4.18,4.8.27,7.2.05,1.46.09,2.92.18,4.37a1.26,1.26,0,0,1-.88,1.45h-.48A1.36,1.36,0,0,1,49.21,62c-.1-1.31-.25-2.61-.38-3.92q-.34-3.36-.69-6.72c0-.35-.08-.71-.13-1.06a6.45,6.45,0,0,0-.19,1.11c-.15,1.5-.29,3-.45,4.51-.21,2-.43,4.05-.62,6.08a1.36,1.36,0,0,1-.92,1.34Z"/><path class="cls-7" d="M48.3,30.94a7.32,7.32,0,0,1,1.28.5,2.68,2.68,0,0,1-.29,4.68,2.87,2.87,0,0,1-3.91-1.3A2.69,2.69,0,0,1,47,31.11c.2-.07.41-.12.61-.17Z"/></g><g id="f22HAf.tif-3" data-name="f22HAf.tif"><path d="M25.3,89.14c-1.66-.59-2.15-1.76-2.08-3.41.32-7.43.55-14.87.83-22.3.14-3.83.34-7.66.43-11.49.05-2.16-.06-4.32-.12-6.48s-.13-4.11-.21-6.17A3.59,3.59,0,0,0,24,38.22c-.23,2.24-.47,4.47-.69,6.71-.32,3.2-.6,6.41-.95,9.61a2.27,2.27,0,0,1-3.7,1.74,2.09,2.09,0,0,1-.82-2c.22-2.44.43-4.87.67-7.3s.46-4.62.74-6.93.49-4.5.93-6.72a7.12,7.12,0,0,1,4-4.92,11.7,11.7,0,0,1,5.56-1.22,47.06,47.06,0,0,1,6.13.25,8.23,8.23,0,0,1,6.72,4.78,11,11,0,0,1,.72,3.33c.49,4.17.94,8.34,1.38,12.52.22,2.09.39,4.18.56,6.27a2.1,2.1,0,0,1-1.35,2.26,2.24,2.24,0,0,1-3.1-1.7c-.22-1.64-.34-3.28-.5-4.93q-.54-5.32-1.09-10.64A5.07,5.07,0,0,0,39,38.21a7.4,7.4,0,0,0-.11.77c-.24,6.48-.46,13-.14,19.44.27,5.66.43,11.32.64,17,.13,3.44.22,6.89.42,10.32a3,3,0,0,1-2.08,3.41H36.59A3.2,3.2,0,0,1,34.41,86c-.25-3.09-.59-6.17-.9-9.25q-.81-7.94-1.63-15.87c-.09-.84-.2-1.67-.3-2.51A15.23,15.23,0,0,0,31.14,61c-.35,3.55-.69,7.1-1.05,10.65-.49,4.78-1,9.56-1.47,14.35-.14,1.48-.62,2.64-2.17,3.17Z"/><path d="M32.28,12.56a17.27,17.27,0,0,1,3,1.18,6.33,6.33,0,0,1-.67,11.05,6.78,6.78,0,0,1-9.23-3.07A6.35,6.35,0,0,1,29.31,13c.47-.16,1-.27,1.45-.41Z"/></g></g></g></g></svg>