<svg xmlns="http://www.w3.org/2000/svg" viewBox="0 0 258.4 258"><defs><style>.cls-1{opacity:0.33;}.cls-2{fill:#010101;}.cls-3{fill:#231f20;}</style></defs><title>icon_globe</title><g id="Layer_2" data-name="Layer 2"><g id="Layer_2-2" data-name="Layer 2"><g class="cls-1"><g id="g1006"><g id="path908"><path class="cls-2" d="M136,256.81A128.53,128.53,0,0,1,43.17,217c-48.6-50.67-48-130.44,1.43-177.8s129.11-44.67,177.71,6a128.19,128.19,0,0,1,36.09,90.13A121.75,121.75,0,0,1,136,256.81ZM129.47,7.34A120,120,0,0,0,46,40.62c-48.59,46.6-49.21,125.09-1.37,175s126.28,52.54,174.88,5.94a119.74,119.74,0,0,0,36.91-86.24,127.55,127.55,0,0,0-126.92-128Z"/></g><g id="path4042"><path class="cls-2" d="M208.12,226.2a64.39,64.39,0,0,1-18.19-2.91c-31.87-9.42-64.83-39.14-86.86-62.42S52.74,103.31,43,72c-5.89-19-2.19-27.86-2-28.23l1.83.8-.92-.4.92.4c0,.08-3.57,8.77,2.21,27.18,5.36,17.05,20,46.13,59.48,87.79,75.61,79.86,113.57,63.27,113.94,63.09l.86,1.81C219.06,224.52,215.36,226.2,208.12,226.2Z"/></g><g id="path7092"><path class="cls-2" d="M219.66,224.12l-1.56-1.25a133.68,133.68,0,0,0,22.52-50.27,112.63,112.63,0,0,0-.66-51.46c-5.23-20.85-16.72-40.75-34.15-59.16s-36.87-30.77-57.75-36.71A114,114,0,0,0,95.53,23.2a143.93,143.93,0,0,0-53,21.74l-1.18-1.61A146.19,146.19,0,0,1,95.17,21.24c29-5.41,72-3,112.1,39.36s41.31,84.53,35.29,112.49A135.76,135.76,0,0,1,219.66,224.12Z"/></g><g id="path7093"><path class="cls-2" d="M219.79,223.92l-1.81-.85c0-.08,3.59-8.21-2.17-26.06-5.34-16.55-20-45-59.4-86.65-21.78-23-54.34-52.59-85.78-62.9C51.92,41.32,42.38,45,42.28,45.06l-.76-1.85c.4-.17,10.12-4,29.44,2.25,31.91,10.35,64.87,40.26,86.91,63.52s50.3,57.37,60,87.79C223.7,215.23,220,223.57,219.79,223.92Z"/></g><g id="path7094"><path class="cls-2" d="M148.24,246c-26.54,0-59.81-9.06-91.75-42.79C16.43,160.88,14.38,119.72,19.71,92.64,25.49,63.31,41,43.71,41.12,43.51l1.56,1.25c-.15.19-15.36,19.47-21,48.34C16.44,119.71,18.5,160.16,58,201.82c17.43,18.41,36.69,31,57.26,37.3a113,113,0,0,0,51.48,3.4,134.66,134.66,0,0,0,51.62-19.84l1.16,1.63a136.75,136.75,0,0,1-52.38,20.17A119.52,119.52,0,0,1,148.24,246Z"/></g><g id="path7095"><path class="cls-2" d="M219.72,224l-1.67-1.1c.09-.14,9.3-14.4,9.08-38.29-.37-40-26.42-75.85-48.22-98.87s-56.36-50.54-97-50.66h-.27c-24.07,0-39,9.75-39.17,9.85l-1.11-1.67C42,42.89,57,33.12,81.62,33.12h.28c22.83.07,58.45,9,98.46,51.28,22.07,23.32,48.45,59.65,48.76,100.37C229.32,209.24,220.11,223.45,219.72,224Z"/></g><g id="path7096"><path class="cls-2" d="M174.09,235.89c-24.05,0-60.06-9-98.88-50C53.13,162.6,27.2,126,29.06,84.15c1.11-25.12,11.59-40,12-40.6l1.63,1.17C42.61,44.87,32.1,59.8,31,84.37c-1,22.69,6.15,58.49,45.62,100.19,21.43,22.63,55.57,49.33,97.34,49.33l2.25,0c25.53-.59,41.91-11.1,42.08-11.2l1.09,1.67c-.17.11-17,10.93-43.12,11.53Z"/></g><g id="path7097"><path class="cls-2" d="M218.29,224.3c-.58-.43-14.94-11.42-91.11-91.87S41.42,45,41.33,45l1.14-1.64c.37.26,10,7.26,86.15,87.73,75.86,80.12,90.72,91.54,90.86,91.65Z"/></g><g id="path7107"><path class="cls-2" d="M24.22,84.38c-4.87,0-7.32-1.71-7.55-1.88l1.19-1.61-.59.81.59-.81c.13.09,13.35,8.94,42.27-18.8C89.37,34,88.24,14.94,88.23,14.75l2-.17c.07.81,1.32,20.13-28.72,48.95C43.53,80.76,31.31,84.38,24.22,84.38Z"/></g><g id="path7108"><path class="cls-2" d="M17.33,134.24c-6.41,0-9.23-2.33-9.52-2.59l1.32-1.5C9.31,130.3,28.3,145.31,86,90c28.85-27.67,41.88-48.1,47.73-60.36,6.39-13.39,6.09-20.83,5.77-21.73a.92.92,0,0,0,.84.52V7.49l-1-.35,1-.72a1,1,0,0,1,1,.72c.52,1.24,1.07,8.8-5.68,23.08C129.77,42.66,116.6,63.4,87.37,91.43,49.89,127.38,28.33,134.24,17.33,134.24Z"/></g><g id="path7109"><path class="cls-2" d="M24.31,169.4c-7,0-10.47-1.87-10.87-2.1l1-1.74c.07,0,7.33,4,22.85-.12,26.12-6.88,54.93-30.71,74.5-49.48,68-65.19,62.83-100,62.77-100.36l2-.35c.26,1.44,5.57,36.06-63.36,102.16C66.93,161.75,38.45,169.4,24.31,169.4Z"/></g><g id="path7110"><path class="cls-2" d="M36.48,204.16a14.73,14.73,0,0,1-3.73-.37l.54-1.93-.27,1,.26-1c.29.08,30.31,7.06,103.1-62.75,38.11-36.55,55.72-62.77,63.77-78.34,8.72-16.85,8.43-25.16,8.43-25.24l2-.11c.08,1.37,1,34.34-72.81,105.12C77.56,198.31,46.56,204.16,36.48,204.16Z"/></g><g id="path7111"><path class="cls-2" d="M59.36,225.79a19.86,19.86,0,0,1-6.3-.79l.67-1.88c.32.11,32.19,10.14,104.76-59.46,72.72-69.74,70-106,70-106.34l2-.21c.16,1.49,3.06,37.39-70.56,108C103.75,218.93,71.93,225.79,59.36,225.79Z"/></g><g id="path7112"><path class="cls-2" d="M85.57,243.54a18.26,18.26,0,0,1-5.51-.65l.64-1.9c.3.1,30.34,8.95,98.41-56.33,68.4-65.6,65.58-98.79,65.55-99.12l2-.22c.15,1.38,3,34.5-66.15,100.78C127.16,237.26,97.11,243.54,85.57,243.54Z"/></g><g id="path7113"><path class="cls-2" d="M117.78,255a16.14,16.14,0,0,1-5.08-.63l.67-1.89c.25.09,26.06,8.06,84.89-48.36,59.17-56.75,57-85.67,57-86l2-.2c.12,1.21,2.27,30.17-57.6,87.59C153.9,249.4,128,255,117.78,255Z"/></g><g id="path7114"><path class="cls-2" d="M151.76,256.15a19,19,0,0,1-6.79-1l.76-1.85-.38.92.38-.93c.22.09,23.34,8.62,68.48-34.67,45.38-43.52,40.61-67.82,40.56-68.06l2-.44c.23,1,5.06,25.65-41.13,69.94C183.06,251.28,161.83,256.15,151.76,256.15Z"/></g></g></g><path class="cls-3" d="M129,0A129,129,0,1,0,258,129,129,129,0,0,0,129,0Zm13.87,250.34C76.44,257.52,16.06,209,8.74,142.6,1.41,76,50.08,15.37,116.71,8.18,183.13,1,243.54,49.54,250.85,115.92,258.18,182.56,209.52,243.14,142.87,250.34Z"/><path class="cls-3" d="M98.68,109c18.26-8.56,19.93-33.11,2.75-43.41-3.65-2.19-8.17-3.13-12.29-4.64H82.93c-2,.53-4,1-5.9,1.6C61.78,67.43,54.35,83,61,96.94,67.44,110.48,84.43,115.69,98.68,109Z"/><path class="cls-3" d="M213.43,177.19c-.36-2.88-.65-5.94-1.91-8.53-3.43-7.08-9.7-11.19-17.89-12.24a130.16,130.16,0,0,0-16.31-.64,32.17,32.17,0,0,0-14.8,3.13c-5.45,2.77-9.47,6.82-10.64,12.59s-1.74,11.45-2.46,17.19c-.74,5.9-1.37,11.82-2,17.73-.64,6.23-1.2,12.46-1.78,18.69a5.25,5.25,0,0,0,2.18,5.14,6.08,6.08,0,0,0,9.83-4.44c.91-8.19,1.67-16.4,2.52-24.6.59-5.72,1.22-11.44,1.83-17.17a8.9,8.9,0,0,1,.51,2.74c.2,5.26.41,10.53.56,15.79.16,5.53.45,11.06.32,16.58-.14,5.7-.38,11.39-.63,17.09A113.22,113.22,0,0,0,201,216c0-10,.36-20,.75-30a18.27,18.27,0,0,1,.29-2,12.47,12.47,0,0,1,.48,2.85q1.35,12.73,2.72,25.45a110.16,110.16,0,0,0,11-11.19C215.29,193.16,214.42,185.17,213.43,177.19Z"/><path class="cls-3" d="M139.73,200.36c-1.79-16.4-3.62-32.79-5.64-49.16-.55-4.43-1-9.12-2.92-13.1-5.26-10.86-14.89-17.18-27.46-18.79-8.24-1.05-16.68-1-25-1-7.91,0-15.68,1.22-22.72,4.8-8.36,4.26-14.54,10.47-16.34,19.32S36.93,160,35.83,168.84c-.87,7-1.59,13.93-2.33,20.9a109,109,0,0,0,16.65,20.33c.74-7.33,1.47-14.67,2.22-22,.91-8.78,1.87-17.56,2.81-26.35a13.62,13.62,0,0,1,.78,4.2c.31,8.08.64,16.16.86,24.24.24,8.48.69,17,.49,25.45,0,.23,0,.46,0,.69a113.84,113.84,0,0,0,58.23,24.1c-1.23-25.25-.37-50.46.61-75.68a27.81,27.81,0,0,1,.44-3,19.13,19.13,0,0,1,.74,4.38q2.22,20.9,4.46,41.8c.68,6.45,1.16,12.93,2.06,19.35.79,5.62,7.09,8.79,12.64,6.66A8.21,8.21,0,0,0,142,225C141.33,216.78,140.62,208.56,139.73,200.36Z"/><path class="cls-3" d="M190.36,149.7c11.9-5.57,13-21.57,1.79-28.28-2.38-1.43-5.33-2-8-3h-4c-1.28.34-2.59.64-3.85,1-9.93,3.18-14.77,13.32-10.45,22.4C170,150.67,181.07,154.06,190.36,149.7Z"/></g></g></svg>