<svg xmlns="http://www.w3.org/2000/svg" viewBox="0 0 236.43 236.43"><defs><style>.cls-1{fill:#231f20;}.cls-2{fill:none;}.cls-3{fill:#101010;}</style></defs><title>icon_black</title><g id="Layer_2" data-name="Layer 2"><g id="Layer_2-2" data-name="Layer 2"><path class="cls-1" d="M235.72,105.27C228.63,40.83,170-6.28,105.52.68,40.83,7.66-6.41,66.48.71,131.16c7.1,64.47,65.72,111.55,130.2,104.58C195.61,228.76,242.84,170,235.72,105.27ZM9.56,128.59c4.36,4.57,7.48,8,8,13.63.82,9.66,3,19.33,10.51,26.08,8,7.18,12,15.87,13.06,26.89C22.9,176.81,12.87,155.09,9.56,128.59Zm157,87.14c-27.81,14.5-57.1,15.22-86.61,4.61-6.35-2.28-9.35-8-7.78-14.6.24-1,1-2,.86-2.93-.95-8.28.92-15,8.82-19.46,1.28-.72.77-4.7,1-7.18.32-4-.2-8.18,1-11.86,2.67-8.34,1.44-11.6-6.94-14.33-3.08-1-6.28-1.68-9.37-2.68-4.47-1.45-7.82-4.14-11.54-7.29-7.76-6.59-17.51-10.85-26.55-15.88a4.71,4.71,0,0,0-4,.37c-4.7,2.92-7.33.41-9.56-3.33a46,46,0,0,1-3.14-5.87c-2.75-6.65-2-10.5,3.64-14.81a31,31,0,0,0,7.88-8.87,71.09,71.09,0,0,1,94.93-80.08l0,0c.94-.94,2.3-2.35,3.29-2.21,10.53,1.45,21,3.17,31.53,4.81l.2,2.09c-3.81,2.5-7.51,5.18-11.45,7.45-.64.37-1.22.73-1.74,1.09a71,71,0,0,1,23.09,41.6l3.73-2c2.91.43,5.28.93,7.68,1.11,3.55.27,7.17,0,10.65.61,1.37.25,3.59,2.66,3.35,3.48-.45,1.57-2.31,3.73-3.74,3.85a87.86,87.86,0,0,1-17.73.16,6.44,6.44,0,0,1-3.25-1.77c.18,2.06.29,4.15.29,6.26a70.86,70.86,0,0,1-20.86,50.3c7.05-2.46,11-.56,14.27,7.44,1,2.37,1.44,5.09,2.92,7.07,4.63,6.2,6.56,12.58,3.5,20.13-.61,1.51-.08,3.79.59,5.45,2.55,6.34,5.25,12.63,8.14,18.82s6.94,7.36,11.63,2.47a122.08,122.08,0,0,0,15-19.94c3.22-5.17,5.31-11.12,7.43-16.89,1-2.79,1.92-6.2,1.25-8.93-1.89-7.76.7-14.26,4.66-20.4s7.13-12.21,1.62-19.21c-.53-.67-.1-2.65.53-3.58,2.43-3.61,5.12-7,8.06-11C225,97.11,227,105,227.1,112.94,227.73,159.33,207.81,194.23,166.59,215.72Z"/><path class="cls-2" d="M56.77,111.38c-.12-4.36-.29-8.71-.45-13.07A7.56,7.56,0,0,0,55.91,96c-.49,4.73-1,9.47-1.47,14.2-.39,4-.77,7.91-1.16,11.86q1.79,1.76,3.73,3.37c0-.12,0-.25,0-.37C57.13,120.54,56.9,116,56.77,111.38Z"/><path class="cls-2" d="M45.81,99.88c.57-4.75,1.05-9.53,2-14.23s4.16-8.12,8.52-10.42a25.06,25.06,0,0,1,11.85-2.59,100.85,100.85,0,0,1,13.06.53c6.56.87,11.58,4.28,14.33,10.13a23.17,23.17,0,0,1,1.53,7.06c1.05,8.83,2,17.67,2.94,26.5.47,4.42.84,8.85,1.19,13.28A4.43,4.43,0,0,1,98.32,135a4.78,4.78,0,0,1-6.6-3.59c-.47-3.46-.72-7-1.07-10.43q-1.16-11.27-2.33-22.53A10.63,10.63,0,0,0,87.93,96a15.46,15.46,0,0,0-.23,1.63c-.51,13.6-1,27.19-.32,40.81A57.44,57.44,0,0,0,112,136.23c.13-3.07.26-6.14.33-9.21s-.08-6-.17-8.94-.19-5.68-.29-8.52a4.94,4.94,0,0,0-.27-1.48c-.32,3.08-.65,6.17-1,9.25-.44,4.42-.84,8.84-1.31,13.26a3.16,3.16,0,0,1-5.13,2.4,2.87,2.87,0,0,1-1.14-2.77c.3-3.36.59-6.72.93-10.08.32-3.19.64-6.38,1-9.56s.69-6.21,1.29-9.27,2.71-5.29,5.55-6.79a16.32,16.32,0,0,1,7.72-1.69,65.71,65.71,0,0,1,8.51.35,11.42,11.42,0,0,1,9.33,6.6,15.1,15.1,0,0,1,1,4.6c.51,4.3,1,8.61,1.43,12.91a57.66,57.66,0,0,0,13-36.51,58.49,58.49,0,0,0-117,0,57.53,57.53,0,0,0,8.68,30.37C45,107.39,45.36,103.63,45.81,99.88Zm73.25-26.63c.66-.22,1.34-.38,2-.56h2.11a24.06,24.06,0,0,1,4.18,1.63,8.71,8.71,0,0,1-.94,15.25,9.43,9.43,0,0,1-12.81-4.24A8.75,8.75,0,0,1,119.07,73.25ZM67.3,42.58c1-.33,2.05-.58,3.08-.86h3.24c2.15.82,4.51,1.32,6.41,2.5C89,49.77,88.13,63,78.6,67.63c-7.44,3.6-16.3.79-19.66-6.51C55.47,53.6,59.35,45.21,67.3,42.58Z"/><path class="cls-2" d="M132.51,108.08a10.14,10.14,0,0,0-.15,1.06c-.2,5.4-.37,10.8-.39,16.19.76-.64,1.48-1.32,2.21-2q-.71-6.86-1.42-13.72A6.94,6.94,0,0,0,132.51,108.08Z"/><path class="cls-3" d="M78.6,67.63C88.13,63,89,49.77,80,44.22c-1.9-1.18-4.26-1.69-6.41-2.5H70.38c-1,.29-2.07.53-3.08.86-8,2.63-11.83,11-8.36,18.54C62.3,68.42,71.16,71.23,78.6,67.63Z"/><path class="cls-3" d="M137.47,99.79a11.42,11.42,0,0,0-9.33-6.6,65.71,65.71,0,0,0-8.51-.35,16.32,16.32,0,0,0-7.72,1.69c-2.84,1.5-4.94,3.68-5.55,6.79s-.91,6.17-1.29,9.27-.71,6.37-1,9.56c-.33,3.36-.62,6.72-.93,10.08a2.87,2.87,0,0,0,1.14,2.77,3.16,3.16,0,0,0,5.13-2.4c.47-4.42.87-8.84,1.31-13.26.31-3.09.64-6.17,1-9.25a4.94,4.94,0,0,1,.27,1.48c.11,2.84.22,5.68.29,8.52s.24,6,.17,8.94-.2,6.14-.33,9.21A58.45,58.45,0,0,0,132,125.33c0-5.4.19-10.8.39-16.19a10.14,10.14,0,0,1,.15-1.06,6.94,6.94,0,0,1,.25,1.54q.71,6.86,1.42,13.72a58.53,58.53,0,0,0,5.72-6c-.46-4.31-.92-8.61-1.43-12.91A15.1,15.1,0,0,0,137.47,99.79Z"/><path class="cls-3" d="M87.7,97.67A15.46,15.46,0,0,1,87.93,96a10.63,10.63,0,0,1,.39,2.36q1.16,11.27,2.33,22.53c.36,3.48.61,7,1.07,10.43a4.78,4.78,0,0,0,6.6,3.59,4.43,4.43,0,0,0,2.88-4.79c-.35-4.43-.72-8.86-1.19-13.28-.93-8.84-1.89-17.68-2.94-26.5a23.17,23.17,0,0,0-1.53-7.06C92.8,77.45,87.78,74,81.22,73.18a100.85,100.85,0,0,0-13.06-.53,25.06,25.06,0,0,0-11.85,2.59c-4.36,2.29-7.59,5.65-8.52,10.42s-1.4,9.47-2,14.23c-.45,3.75-.83,7.51-1.21,11.27a58.4,58.4,0,0,0,8.69,11c.39-4,.76-7.91,1.16-11.86.47-4.74,1-9.47,1.47-14.2a7.56,7.56,0,0,1,.41,2.27c.16,4.36.33,8.71.45,13.07.12,4.57.36,9.15.25,13.72,0,.12,0,.25,0,.37a58.38,58.38,0,0,0,30.38,13C86.74,124.86,87.19,111.27,87.7,97.67Z"/><path class="cls-3" d="M126.43,89.57a8.71,8.71,0,0,0,.94-15.25,24.06,24.06,0,0,0-4.18-1.63h-2.11c-.67.19-1.35.34-2,.56a8.75,8.75,0,0,0-5.45,12.08A9.43,9.43,0,0,0,126.43,89.57Z"/><path class="cls-1" d="M130.24,136.57a68.95,68.95,0,1,1,22.55-94.86A69,69,0,0,1,130.24,136.57ZM60.89,24A63.29,63.29,0,1,0,148,44.67,63.36,63.36,0,0,0,60.89,24Z"/><path class="cls-1" d="M179.11,214.68l-1,.59a7.84,7.84,0,0,1-10.75-2.56l-36-58.39a7.84,7.84,0,0,1,2.56-10.75l1-.59a7.84,7.84,0,0,1,10.75,2.56l36,58.39A7.84,7.84,0,0,1,179.11,214.68Z"/><rect class="cls-1" x="132.76" y="133.31" width="7.82" height="27.29" transform="translate(-56.77 93.51) rotate(-31.63)"/></g></g></svg>