<svg xmlns="http://www.w3.org/2000/svg" viewBox="0 0 43.82 76.34"><defs><style>.cls-1{fill:#932f37;}.cls-2{fill:#282828;}</style></defs><title>people_some</title><g id="Layer_2" data-name="Layer 2"><g id="templates"><g id="f22HAf.tif"><path class="cls-1" d="M3.69,36.89a1.44,1.44,0,0,1-1-1.64c.16-3.58.27-7.16.41-10.75.07-1.84.17-3.69.21-5.53,0-1,0-2.08-.06-3.12s-.07-2-.1-3A1.7,1.7,0,0,0,3,12.36c-.11,1.08-.23,2.15-.34,3.23-.16,1.54-.3,3.09-.47,4.63a1.12,1.12,0,0,1-1.82.84,1,1,0,0,1-.4-1c.11-1.17.21-2.35.33-3.52s.23-2.23.37-3.34.24-2.17.46-3.24a3.45,3.45,0,0,1,2-2.37A5.87,5.87,0,0,1,5.87,7a23.68,23.68,0,0,1,3,.12,4,4,0,0,1,3.31,2.3,5.2,5.2,0,0,1,.35,1.61c.24,2,.46,4,.68,6,.11,1,.19,2,.27,3a1,1,0,0,1-.67,1.09,1.11,1.11,0,0,1-1.52-.82c-.11-.79-.17-1.58-.25-2.37l-.54-5.13a2.39,2.39,0,0,0-.09-.54,3.49,3.49,0,0,0-.05.37c-.12,3.12-.22,6.24-.07,9.36.13,2.73.21,5.46.32,8.18.06,1.66.11,3.32.21,5a1.43,1.43,0,0,1-1,1.64H9.25a1.54,1.54,0,0,1-1.07-1.53c-.12-1.49-.29-3-.44-4.45q-.4-3.82-.8-7.65c0-.4-.1-.8-.15-1.21a7.19,7.19,0,0,0-.22,1.27c-.17,1.71-.34,3.42-.52,5.13-.24,2.3-.5,4.61-.73,6.91a1.55,1.55,0,0,1-1.07,1.53Z"/><path class="cls-1" d="M7.13,0A8.62,8.62,0,0,1,8.61.57a3,3,0,0,1-.33,5.32A3.37,3.37,0,0,1,3.73,4.41,3,3,0,0,1,5.67.2c.23-.08.47-.13.71-.2Z"/></g><g id="f22HAf.tif-2" data-name="f22HAf.tif"><path class="cls-2" d="M18.85,36.89a1.44,1.44,0,0,1-1-1.64c.16-3.58.27-7.16.41-10.75.07-1.84.17-3.69.21-5.53,0-1,0-2.08-.06-3.12s-.07-2-.1-3a1.7,1.7,0,0,0-.09-.52c-.11,1.08-.23,2.15-.34,3.23-.16,1.54-.3,3.09-.47,4.63a1.12,1.12,0,0,1-1.82.84,1,1,0,0,1-.4-1c.11-1.17.21-2.35.33-3.52s.23-2.23.37-3.34.24-2.17.46-3.24a3.45,3.45,0,0,1,2-2.37A5.87,5.87,0,0,1,21,7a23.68,23.68,0,0,1,3,.12,4,4,0,0,1,3.31,2.3,5.2,5.2,0,0,1,.35,1.61c.24,2,.46,4,.68,6,.11,1,.19,2,.27,3A1,1,0,0,1,28,21.21a1.11,1.11,0,0,1-1.52-.82c-.11-.79-.17-1.58-.25-2.37l-.54-5.13a2.39,2.39,0,0,0-.09-.54,3.49,3.49,0,0,0-.05.37c-.12,3.12-.22,6.24-.07,9.36.13,2.73.21,5.46.32,8.18.06,1.66.11,3.32.21,5a1.43,1.43,0,0,1-1,1.64h-.56a1.54,1.54,0,0,1-1.07-1.53c-.12-1.49-.29-3-.44-4.45q-.4-3.82-.8-7.65c0-.4-.1-.8-.15-1.21a7.19,7.19,0,0,0-.22,1.27c-.17,1.71-.34,3.42-.52,5.13-.24,2.3-.5,4.61-.73,6.91a1.55,1.55,0,0,1-1.07,1.53Z"/><path class="cls-2" d="M22.28,0a8.62,8.62,0,0,1,1.48.57,3,3,0,0,1-.33,5.32,3.37,3.37,0,0,1-4.54-1.48A3,3,0,0,1,20.82.2c.23-.08.47-.13.71-.2Z"/></g><g id="f22HAf.tif-3" data-name="f22HAf.tif"><path class="cls-1" d="M34,36.89a1.44,1.44,0,0,1-1-1.64c.16-3.58.27-7.16.41-10.75.07-1.84.17-3.69.21-5.53,0-1,0-2.08-.06-3.12s-.07-2-.1-3a1.7,1.7,0,0,0-.09-.52c-.11,1.08-.23,2.15-.34,3.23-.16,1.54-.3,3.09-.47,4.63a1.12,1.12,0,0,1-1.82.84,1,1,0,0,1-.4-1c.11-1.17.21-2.35.33-3.52s.23-2.23.37-3.34.24-2.17.46-3.24a3.45,3.45,0,0,1,2-2.37A5.87,5.87,0,0,1,36.17,7a23.68,23.68,0,0,1,3,.12,4,4,0,0,1,3.31,2.3,5.2,5.2,0,0,1,.35,1.61c.24,2,.46,4,.68,6,.11,1,.19,2,.27,3a1,1,0,0,1-.67,1.09,1.11,1.11,0,0,1-1.52-.82c-.11-.79-.17-1.58-.25-2.37l-.54-5.13a2.39,2.39,0,0,0-.09-.54,3.49,3.49,0,0,0-.05.37c-.12,3.12-.22,6.24-.07,9.36.13,2.73.21,5.46.32,8.18.06,1.66.11,3.32.21,5a1.43,1.43,0,0,1-1,1.64h-.56a1.54,1.54,0,0,1-1.07-1.53c-.12-1.49-.29-3-.44-4.45q-.4-3.82-.8-7.65c0-.4-.1-.8-.15-1.21a7.19,7.19,0,0,0-.22,1.27c-.17,1.71-.34,3.42-.52,5.13-.24,2.3-.5,4.61-.73,6.91a1.55,1.55,0,0,1-1.07,1.53Z"/><path class="cls-1" d="M37.44,0a8.62,8.62,0,0,1,1.48.57,3,3,0,0,1-.33,5.32A3.37,3.37,0,0,1,34,4.41,3,3,0,0,1,36,.2c.23-.08.47-.13.71-.2Z"/></g><g id="f22HAf.tif-4" data-name="f22HAf.tif"><path class="cls-2" d="M3.69,76.34a1.44,1.44,0,0,1-1-1.64c.16-3.58.27-7.16.41-10.75.07-1.84.17-3.69.21-5.53,0-1,0-2.08-.06-3.12s-.07-2-.1-3A1.7,1.7,0,0,0,3,51.8C2.92,52.88,2.8,54,2.7,55c-.16,1.54-.3,3.09-.47,4.63a1.12,1.12,0,0,1-1.82.84,1,1,0,0,1-.4-1C.11,58.36.22,57.19.34,56s.23-2.23.37-3.34.24-2.17.46-3.24a3.45,3.45,0,0,1,2-2.37,5.87,5.87,0,0,1,2.74-.59,23.68,23.68,0,0,1,3,.12,4,4,0,0,1,3.31,2.3,5.2,5.2,0,0,1,.35,1.61c.24,2,.46,4,.68,6,.11,1,.19,2,.27,3a1,1,0,0,1-.67,1.09,1.11,1.11,0,0,1-1.52-.82c-.11-.79-.17-1.58-.25-2.37l-.54-5.13a2.39,2.39,0,0,0-.09-.54,3.49,3.49,0,0,0-.05.37c-.12,3.12-.22,6.24-.07,9.36.13,2.73.21,5.46.32,8.18.06,1.66.11,3.32.21,5a1.43,1.43,0,0,1-1,1.64H9.25a1.54,1.54,0,0,1-1.07-1.53c-.12-1.49-.29-3-.44-4.45q-.4-3.82-.8-7.65c0-.4-.1-.8-.15-1.21a7.19,7.19,0,0,0-.22,1.27c-.17,1.71-.34,3.42-.52,5.13-.24,2.3-.5,4.61-.73,6.91a1.55,1.55,0,0,1-1.07,1.53Z"/><path class="cls-2" d="M7.13,39.44A8.62,8.62,0,0,1,8.61,40a3,3,0,0,1-.33,5.32,3.37,3.37,0,0,1-4.54-1.48,3,3,0,0,1,1.93-4.22c.23-.08.47-.13.71-.2Z"/></g><g id="f22HAf.tif-5" data-name="f22HAf.tif"><path class="cls-1" d="M18.85,76.34a1.44,1.44,0,0,1-1-1.64c.16-3.58.27-7.16.41-10.75.07-1.84.17-3.69.21-5.53,0-1,0-2.08-.06-3.12s-.07-2-.1-3a1.7,1.7,0,0,0-.09-.52C18.08,52.88,18,54,17.85,55c-.16,1.54-.3,3.09-.47,4.63a1.12,1.12,0,0,1-1.82.84,1,1,0,0,1-.4-1c.11-1.17.21-2.35.33-3.52s.23-2.23.37-3.34.24-2.17.46-3.24a3.45,3.45,0,0,1,2-2.37A5.87,5.87,0,0,1,21,46.48a23.68,23.68,0,0,1,3,.12,4,4,0,0,1,3.31,2.3,5.2,5.2,0,0,1,.35,1.61c.24,2,.46,4,.68,6,.11,1,.19,2,.27,3A1,1,0,0,1,28,60.65a1.11,1.11,0,0,1-1.52-.82c-.11-.79-.17-1.58-.25-2.37l-.54-5.13a2.39,2.39,0,0,0-.09-.54,3.49,3.49,0,0,0-.05.37c-.12,3.12-.22,6.24-.07,9.36.13,2.73.21,5.46.32,8.18.06,1.66.11,3.32.21,5a1.43,1.43,0,0,1-1,1.64h-.56a1.54,1.54,0,0,1-1.07-1.53c-.12-1.49-.29-3-.44-4.45q-.4-3.82-.8-7.65c0-.4-.1-.8-.15-1.21a7.19,7.19,0,0,0-.22,1.27c-.17,1.71-.34,3.42-.52,5.13-.24,2.3-.5,4.61-.73,6.91a1.55,1.55,0,0,1-1.07,1.53Z"/><path class="cls-1" d="M22.28,39.44a8.62,8.62,0,0,1,1.48.57,3,3,0,0,1-.33,5.32,3.37,3.37,0,0,1-4.54-1.48,3,3,0,0,1,1.93-4.22c.23-.08.47-.13.71-.2Z"/></g><g id="f22HAf.tif-6" data-name="f22HAf.tif"><path class="cls-2" d="M34,76.34a1.44,1.44,0,0,1-1-1.64c.16-3.58.27-7.16.41-10.75.07-1.84.17-3.69.21-5.53,0-1,0-2.08-.06-3.12s-.07-2-.1-3a1.7,1.7,0,0,0-.09-.52C33.23,52.88,33.11,54,33,55c-.16,1.54-.3,3.09-.47,4.63a1.12,1.12,0,0,1-1.82.84,1,1,0,0,1-.4-1c.11-1.17.21-2.35.33-3.52s.23-2.23.37-3.34.24-2.17.46-3.24a3.45,3.45,0,0,1,2-2.37,5.87,5.87,0,0,1,2.74-.59,23.68,23.68,0,0,1,3,.12,4,4,0,0,1,3.31,2.3,5.2,5.2,0,0,1,.35,1.61c.24,2,.46,4,.68,6,.11,1,.19,2,.27,3a1,1,0,0,1-.67,1.09,1.11,1.11,0,0,1-1.52-.82c-.11-.79-.17-1.58-.25-2.37l-.54-5.13a2.39,2.39,0,0,0-.09-.54,3.49,3.49,0,0,0-.05.37c-.12,3.12-.22,6.24-.07,9.36.13,2.73.21,5.46.32,8.18.06,1.66.11,3.32.21,5a1.43,1.43,0,0,1-1,1.64h-.56a1.54,1.54,0,0,1-1.07-1.53c-.12-1.49-.29-3-.44-4.45q-.4-3.82-.8-7.65c0-.4-.1-.8-.15-1.21a7.19,7.19,0,0,0-.22,1.27c-.17,1.71-.34,3.42-.52,5.13-.24,2.3-.5,4.61-.73,6.91a1.55,1.55,0,0,1-1.07,1.53Z"/><path class="cls-2" d="M37.44,39.44a8.62,8.62,0,0,1,1.48.57,3,3,0,0,1-.33,5.32A3.37,3.37,0,0,1,34,43.86,3,3,0,0,1,36,39.64c.23-.08.47-.13.71-.2Z"/></g></g></g></svg>