<svg xmlns="http://www.w3.org/2000/svg" viewBox="0 0 119.59 78.02"><defs><style>.cls-1{fill:#932f37;}.cls-2{fill:#282828;}</style></defs><title>people_many</title><g id="Layer_2" data-name="Layer 2"><g id="templates"><g id="f22HAf.tif"><path class="cls-1" d="M3.69,37.7a1.48,1.48,0,0,1-1-1.68c.16-3.66.27-7.32.41-11,.07-1.89.17-3.77.21-5.66,0-1.06,0-2.13-.06-3.19s-.07-2-.1-3A1.77,1.77,0,0,0,3,12.63c-.11,1.1-.23,2.2-.34,3.3-.16,1.58-.3,3.16-.47,4.73a1.12,1.12,0,0,1-1.82.86,1,1,0,0,1-.4-1c.11-1.2.21-2.4.33-3.6s.23-2.28.37-3.41.24-2.22.46-3.31a3.51,3.51,0,0,1,2-2.42,5.76,5.76,0,0,1,2.74-.6,23.17,23.17,0,0,1,3,.12A4.05,4.05,0,0,1,12.2,9.67a5.42,5.42,0,0,1,.35,1.64c.24,2.05.46,4.11.68,6.16.11,1,.19,2.06.27,3.09a1,1,0,0,1-.67,1.11,1.1,1.1,0,0,1-1.52-.83c-.11-.81-.17-1.62-.25-2.43l-.54-5.24a2.49,2.49,0,0,0-.09-.55,3.64,3.64,0,0,0-.05.38c-.12,3.19-.22,6.38-.07,9.57.13,2.79.21,5.58.32,8.36.06,1.69.11,3.39.21,5.08a1.47,1.47,0,0,1-1,1.68H9.25a1.58,1.58,0,0,1-1.07-1.56c-.12-1.52-.29-3-.44-4.55q-.4-3.91-.8-7.81c0-.41-.1-.82-.15-1.23a7.5,7.5,0,0,0-.22,1.29c-.17,1.75-.34,3.49-.52,5.24-.24,2.36-.5,4.71-.73,7.07A1.58,1.58,0,0,1,4.26,37.7Z"/><path class="cls-1" d="M7.13,0A8.51,8.51,0,0,1,8.61.58,3.12,3.12,0,0,1,8.28,6,3.34,3.34,0,0,1,3.73,4.51,3.13,3.13,0,0,1,5.67.2c.23-.08.47-.13.71-.2Z"/></g><g id="f22HAf.tif-2" data-name="f22HAf.tif"><path class="cls-2" d="M18.85,37.7a1.48,1.48,0,0,1-1-1.68c.16-3.66.27-7.32.41-11,.07-1.89.17-3.77.21-5.66,0-1.06,0-2.13-.06-3.19s-.07-2-.1-3a1.77,1.77,0,0,0-.09-.53c-.11,1.1-.23,2.2-.34,3.3-.16,1.58-.3,3.16-.47,4.73a1.12,1.12,0,0,1-1.82.86,1,1,0,0,1-.4-1c.11-1.2.21-2.4.33-3.6s.23-2.28.37-3.41.24-2.22.46-3.31a3.51,3.51,0,0,1,2-2.42A5.76,5.76,0,0,1,21,7.19a23.17,23.17,0,0,1,3,.12,4.05,4.05,0,0,1,3.31,2.36,5.42,5.42,0,0,1,.35,1.64c.24,2.05.46,4.11.68,6.16.11,1,.19,2.06.27,3.09A1,1,0,0,1,28,21.68a1.1,1.1,0,0,1-1.52-.83c-.11-.81-.17-1.62-.25-2.43l-.54-5.24a2.49,2.49,0,0,0-.09-.55,3.64,3.64,0,0,0-.05.38c-.12,3.19-.22,6.38-.07,9.57.13,2.79.21,5.58.32,8.36.06,1.69.11,3.39.21,5.08a1.47,1.47,0,0,1-1,1.68h-.56a1.58,1.58,0,0,1-1.07-1.56c-.12-1.52-.29-3-.44-4.55q-.4-3.91-.8-7.81c0-.41-.1-.82-.15-1.23a7.5,7.5,0,0,0-.22,1.29c-.17,1.75-.34,3.49-.52,5.24-.24,2.36-.5,4.71-.73,7.07a1.58,1.58,0,0,1-1.07,1.56Z"/><path class="cls-2" d="M22.28,0a8.51,8.51,0,0,1,1.48.58A3.12,3.12,0,0,1,23.43,6a3.34,3.34,0,0,1-4.54-1.51A3.13,3.13,0,0,1,20.82.2c.23-.08.47-.13.71-.2Z"/></g><g id="f22HAf.tif-3" data-name="f22HAf.tif"><path class="cls-2" d="M34,37.7A1.48,1.48,0,0,1,33,36c.16-3.66.27-7.32.41-11,.07-1.89.17-3.77.21-5.66,0-1.06,0-2.13-.06-3.19s-.07-2-.1-3a1.77,1.77,0,0,0-.09-.53c-.11,1.1-.23,2.2-.34,3.3-.16,1.58-.3,3.16-.47,4.73a1.12,1.12,0,0,1-1.82.86,1,1,0,0,1-.4-1c.11-1.2.21-2.4.33-3.6s.23-2.28.37-3.41.24-2.22.46-3.31a3.51,3.51,0,0,1,2-2.42,5.76,5.76,0,0,1,2.74-.6,23.17,23.17,0,0,1,3,.12A4.05,4.05,0,0,1,42.5,9.67a5.42,5.42,0,0,1,.35,1.64c.24,2.05.46,4.11.68,6.16.11,1,.19,2.06.27,3.09a1,1,0,0,1-.67,1.11,1.1,1.1,0,0,1-1.52-.83c-.11-.81-.17-1.62-.25-2.43l-.54-5.24a2.49,2.49,0,0,0-.09-.55,3.64,3.64,0,0,0-.05.38c-.12,3.19-.22,6.38-.07,9.57.13,2.79.21,5.58.32,8.36.06,1.69.11,3.39.21,5.08a1.47,1.47,0,0,1-1,1.68h-.56a1.58,1.58,0,0,1-1.07-1.56c-.12-1.52-.29-3-.44-4.55q-.4-3.91-.8-7.81c0-.41-.1-.82-.15-1.23a7.5,7.5,0,0,0-.22,1.29c-.17,1.75-.34,3.49-.52,5.24-.24,2.36-.5,4.71-.73,7.07a1.58,1.58,0,0,1-1.07,1.56Z"/><path class="cls-2" d="M37.44,0a8.51,8.51,0,0,1,1.48.58A3.12,3.12,0,0,1,38.59,6,3.34,3.34,0,0,1,34,4.51,3.13,3.13,0,0,1,36,.2c.23-.08.47-.13.71-.2Z"/></g><g id="f22HAf.tif-4" data-name="f22HAf.tif"><path class="cls-2" d="M49.16,37.7a1.48,1.48,0,0,1-1-1.68c.16-3.66.27-7.32.41-11,.07-1.89.17-3.77.21-5.66,0-1.06,0-2.13-.06-3.19s-.07-2-.1-3a1.77,1.77,0,0,0-.09-.53c-.11,1.1-.23,2.2-.34,3.3-.16,1.58-.3,3.16-.47,4.73a1.12,1.12,0,0,1-1.82.86,1,1,0,0,1-.4-1c.11-1.2.21-2.4.33-3.6s.23-2.28.37-3.41.24-2.22.46-3.31a3.51,3.51,0,0,1,2-2.42,5.76,5.76,0,0,1,2.74-.6,23.17,23.17,0,0,1,3,.12,4.05,4.05,0,0,1,3.31,2.36A5.42,5.42,0,0,1,58,11.31c.24,2.05.46,4.11.68,6.16.11,1,.19,2.06.27,3.09a1,1,0,0,1-.67,1.11,1.1,1.1,0,0,1-1.52-.83c-.11-.81-.17-1.62-.25-2.43L56,13.18a2.49,2.49,0,0,0-.09-.55,3.64,3.64,0,0,0-.05.38c-.12,3.19-.22,6.38-.07,9.57.13,2.79.21,5.58.32,8.36.06,1.69.11,3.39.21,5.08a1.47,1.47,0,0,1-1,1.68h-.56a1.58,1.58,0,0,1-1.07-1.56c-.12-1.52-.29-3-.44-4.55q-.4-3.91-.8-7.81c0-.41-.1-.82-.15-1.23A7.5,7.5,0,0,0,52,23.83c-.17,1.75-.34,3.49-.52,5.24-.24,2.36-.5,4.71-.73,7.07a1.58,1.58,0,0,1-1.07,1.56Z"/><path class="cls-2" d="M52.59,0a8.51,8.51,0,0,1,1.48.58A3.12,3.12,0,0,1,53.74,6,3.34,3.34,0,0,1,49.2,4.51,3.13,3.13,0,0,1,51.13.2c.23-.08.47-.13.71-.2Z"/></g><g id="f22HAf.tif-5" data-name="f22HAf.tif"><path class="cls-1" d="M64.31,37.7a1.48,1.48,0,0,1-1-1.68c.16-3.66.27-7.32.41-11,.07-1.89.17-3.77.21-5.66,0-1.06,0-2.13-.06-3.19s-.07-2-.1-3a1.77,1.77,0,0,0-.09-.53c-.11,1.1-.23,2.2-.34,3.3-.16,1.58-.3,3.16-.47,4.73a1.12,1.12,0,0,1-1.82.86,1,1,0,0,1-.4-1c.11-1.2.21-2.4.33-3.6s.23-2.28.37-3.41.24-2.22.46-3.31a3.51,3.51,0,0,1,2-2.42,5.76,5.76,0,0,1,2.74-.6,23.17,23.17,0,0,1,3,.12,4.05,4.05,0,0,1,3.31,2.36,5.42,5.42,0,0,1,.35,1.64c.24,2.05.46,4.11.68,6.16.11,1,.19,2.06.27,3.09a1,1,0,0,1-.67,1.11,1.1,1.1,0,0,1-1.52-.83c-.11-.81-.17-1.62-.25-2.43l-.54-5.24a2.49,2.49,0,0,0-.09-.55A3.64,3.64,0,0,0,71,13c-.12,3.19-.22,6.38-.07,9.57.13,2.79.21,5.58.32,8.36.06,1.69.11,3.39.21,5.08a1.47,1.47,0,0,1-1,1.68h-.56a1.58,1.58,0,0,1-1.07-1.56c-.12-1.52-.29-3-.44-4.55q-.4-3.91-.8-7.81c0-.41-.1-.82-.15-1.23a7.5,7.5,0,0,0-.22,1.29c-.17,1.75-.34,3.49-.52,5.24-.24,2.36-.5,4.71-.73,7.07a1.58,1.58,0,0,1-1.07,1.56Z"/><path class="cls-1" d="M67.75,0a8.51,8.51,0,0,1,1.48.58A3.12,3.12,0,0,1,68.9,6a3.34,3.34,0,0,1-4.54-1.51A3.13,3.13,0,0,1,66.28.2c.23-.08.47-.13.71-.2Z"/></g><g id="f22HAf.tif-6" data-name="f22HAf.tif"><path class="cls-2" d="M79.47,37.7a1.48,1.48,0,0,1-1-1.68c.16-3.66.27-7.32.41-11,.07-1.89.17-3.77.21-5.66,0-1.06,0-2.13-.06-3.19s-.07-2-.1-3a1.77,1.77,0,0,0-.09-.53c-.11,1.1-.23,2.2-.34,3.3-.16,1.58-.3,3.16-.47,4.73a1.12,1.12,0,0,1-1.82.86,1,1,0,0,1-.4-1c.11-1.2.21-2.4.33-3.6s.23-2.28.37-3.41.24-2.22.46-3.31a3.51,3.51,0,0,1,2-2.42,5.76,5.76,0,0,1,2.74-.6,23.17,23.17,0,0,1,3,.12A4.05,4.05,0,0,1,88,9.67a5.42,5.42,0,0,1,.35,1.64c.24,2.05.46,4.11.68,6.16.11,1,.19,2.06.27,3.09a1,1,0,0,1-.67,1.11,1.1,1.1,0,0,1-1.52-.83c-.11-.81-.17-1.62-.25-2.43l-.54-5.24a2.49,2.49,0,0,0-.09-.55,3.64,3.64,0,0,0-.05.38c-.12,3.19-.22,6.38-.07,9.57.13,2.79.21,5.58.32,8.36.06,1.69.11,3.39.21,5.08a1.47,1.47,0,0,1-1,1.68H85A1.58,1.58,0,0,1,84,36.14c-.12-1.52-.29-3-.44-4.55q-.4-3.91-.8-7.81c0-.41-.1-.82-.15-1.23a7.5,7.5,0,0,0-.22,1.29c-.17,1.75-.34,3.49-.52,5.24-.24,2.36-.5,4.71-.73,7.07A1.58,1.58,0,0,1,80,37.7Z"/><path class="cls-2" d="M82.9,0a8.51,8.51,0,0,1,1.48.58A3.12,3.12,0,0,1,84.05,6a3.34,3.34,0,0,1-4.54-1.51A3.13,3.13,0,0,1,81.44.2c.23-.08.47-.13.71-.2Z"/></g><g id="f22HAf.tif-7" data-name="f22HAf.tif"><path class="cls-2" d="M94.62,37.7a1.48,1.48,0,0,1-1-1.68c.16-3.66.27-7.32.41-11,.07-1.89.17-3.77.21-5.66,0-1.06,0-2.13-.06-3.19s-.07-2-.1-3a1.77,1.77,0,0,0-.09-.53c-.11,1.1-.23,2.2-.34,3.3-.16,1.58-.3,3.16-.47,4.73a1.12,1.12,0,0,1-1.82.86,1,1,0,0,1-.4-1c.11-1.2.21-2.4.33-3.6s.23-2.28.37-3.41.24-2.22.46-3.31a3.51,3.51,0,0,1,2-2.42,5.76,5.76,0,0,1,2.74-.6,23.17,23.17,0,0,1,3,.12,4.05,4.05,0,0,1,3.31,2.36,5.42,5.42,0,0,1,.35,1.64c.24,2.05.46,4.11.68,6.16.11,1,.19,2.06.27,3.09a1,1,0,0,1-.67,1.11,1.1,1.1,0,0,1-1.52-.83c-.11-.81-.17-1.62-.25-2.43l-.54-5.24a2.49,2.49,0,0,0-.09-.55,3.64,3.64,0,0,0-.05.38c-.12,3.19-.22,6.38-.07,9.57.13,2.79.21,5.58.32,8.36.06,1.69.11,3.39.21,5.08a1.47,1.47,0,0,1-1,1.68h-.56a1.58,1.58,0,0,1-1.07-1.56c-.12-1.52-.29-3-.44-4.55q-.4-3.91-.8-7.81c0-.41-.1-.82-.15-1.23a7.5,7.5,0,0,0-.22,1.29c-.17,1.75-.34,3.49-.52,5.24-.24,2.36-.5,4.71-.73,7.07a1.58,1.58,0,0,1-1.07,1.56Z"/><path class="cls-2" d="M98.05,0a8.51,8.51,0,0,1,1.48.58A3.12,3.12,0,0,1,99.21,6a3.34,3.34,0,0,1-4.54-1.51A3.13,3.13,0,0,1,96.59.2c.23-.08.47-.13.71-.2Z"/></g><g id="f22HAf.tif-8" data-name="f22HAf.tif"><path class="cls-2" d="M109.77,37.7a1.48,1.48,0,0,1-1-1.68c.16-3.66.27-7.32.41-11,.07-1.89.17-3.77.21-5.66,0-1.06,0-2.13-.06-3.19s-.07-2-.1-3a1.77,1.77,0,0,0-.09-.53c-.11,1.1-.23,2.2-.34,3.3-.16,1.58-.3,3.16-.47,4.73a1.12,1.12,0,0,1-1.82.86,1,1,0,0,1-.4-1c.11-1.2.21-2.4.33-3.6s.23-2.28.37-3.41.24-2.22.46-3.31a3.51,3.51,0,0,1,2-2.42,5.76,5.76,0,0,1,2.74-.6,23.17,23.17,0,0,1,3,.12,4.05,4.05,0,0,1,3.31,2.36,5.42,5.42,0,0,1,.35,1.64c.24,2.05.46,4.11.68,6.16.11,1,.19,2.06.27,3.09a1,1,0,0,1-.67,1.11,1.1,1.1,0,0,1-1.52-.83c-.11-.81-.17-1.62-.25-2.43l-.54-5.24a2.49,2.49,0,0,0-.09-.55,3.64,3.64,0,0,0-.05.38c-.12,3.19-.22,6.38-.07,9.57.13,2.79.21,5.58.32,8.36.06,1.69.11,3.39.21,5.08a1.47,1.47,0,0,1-1,1.68h-.56a1.58,1.58,0,0,1-1.07-1.56c-.12-1.52-.29-3-.44-4.55q-.4-3.91-.8-7.81c0-.41-.1-.82-.15-1.23a7.5,7.5,0,0,0-.22,1.29c-.17,1.75-.34,3.49-.52,5.24-.24,2.36-.5,4.71-.73,7.07a1.58,1.58,0,0,1-1.07,1.56Z"/><path class="cls-2" d="M113.21,0a8.51,8.51,0,0,1,1.48.58A3.12,3.12,0,0,1,114.36,6a3.34,3.34,0,0,1-4.54-1.51A3.13,3.13,0,0,1,111.75.2c.23-.08.47-.13.71-.2Z"/></g><g id="f22HAf.tif-9" data-name="f22HAf.tif"><path class="cls-2" d="M3.69,78a1.48,1.48,0,0,1-1-1.68c.16-3.66.27-7.32.41-11,.07-1.89.17-3.77.21-5.66,0-1.06,0-2.13-.06-3.19s-.07-2-.1-3A1.77,1.77,0,0,0,3,52.94c-.11,1.1-.23,2.2-.34,3.3-.16,1.58-.3,3.16-.47,4.73a1.12,1.12,0,0,1-1.82.86,1,1,0,0,1-.4-1c.11-1.2.21-2.4.33-3.6S.56,55,.7,53.83s.24-2.22.46-3.31a3.51,3.51,0,0,1,2-2.42,5.76,5.76,0,0,1,2.74-.6,23.17,23.17,0,0,1,3,.12A4.05,4.05,0,0,1,12.2,50a5.42,5.42,0,0,1,.35,1.64c.24,2.05.46,4.11.68,6.16.11,1,.19,2.06.27,3.09A1,1,0,0,1,12.84,62a1.1,1.1,0,0,1-1.52-.83c-.11-.81-.17-1.62-.25-2.43l-.54-5.24a2.49,2.49,0,0,0-.09-.55,3.64,3.64,0,0,0-.05.38c-.12,3.19-.22,6.38-.07,9.57.13,2.79.21,5.58.32,8.36.06,1.69.11,3.39.21,5.08a1.47,1.47,0,0,1-1,1.68H9.25a1.58,1.58,0,0,1-1.07-1.56c-.12-1.52-.29-3-.44-4.55q-.4-3.91-.8-7.81c0-.41-.1-.82-.15-1.23a7.5,7.5,0,0,0-.22,1.29c-.17,1.75-.34,3.49-.52,5.24-.24,2.36-.5,4.71-.73,7.07A1.58,1.58,0,0,1,4.26,78Z"/><path class="cls-2" d="M7.13,40.31a8.51,8.51,0,0,1,1.48.58,3.12,3.12,0,0,1-.33,5.44,3.34,3.34,0,0,1-4.54-1.51,3.13,3.13,0,0,1,1.93-4.31c.23-.08.47-.13.71-.2Z"/></g><g id="f22HAf.tif-10" data-name="f22HAf.tif"><path class="cls-1" d="M18.85,78a1.48,1.48,0,0,1-1-1.68c.16-3.66.27-7.32.41-11,.07-1.89.17-3.77.21-5.66,0-1.06,0-2.13-.06-3.19s-.07-2-.1-3a1.77,1.77,0,0,0-.09-.53c-.11,1.1-.23,2.2-.34,3.3-.16,1.58-.3,3.16-.47,4.73a1.12,1.12,0,0,1-1.82.86,1,1,0,0,1-.4-1c.11-1.2.21-2.4.33-3.6s.23-2.28.37-3.41.24-2.22.46-3.31a3.51,3.51,0,0,1,2-2.42A5.76,5.76,0,0,1,21,47.5a23.17,23.17,0,0,1,3,.12A4.05,4.05,0,0,1,27.35,50a5.42,5.42,0,0,1,.35,1.64c.24,2.05.46,4.11.68,6.16.11,1,.19,2.06.27,3.09A1,1,0,0,1,28,62a1.1,1.1,0,0,1-1.52-.83c-.11-.81-.17-1.62-.25-2.43l-.54-5.24a2.49,2.49,0,0,0-.09-.55,3.64,3.64,0,0,0-.05.38c-.12,3.19-.22,6.38-.07,9.57.13,2.79.21,5.58.32,8.36.06,1.69.11,3.39.21,5.08A1.47,1.47,0,0,1,25,78h-.56a1.58,1.58,0,0,1-1.07-1.56c-.12-1.52-.29-3-.44-4.55q-.4-3.91-.8-7.81c0-.41-.1-.82-.15-1.23a7.5,7.5,0,0,0-.22,1.29c-.17,1.75-.34,3.49-.52,5.24-.24,2.36-.5,4.71-.73,7.07A1.58,1.58,0,0,1,19.41,78Z"/><path class="cls-1" d="M22.28,40.31a8.51,8.51,0,0,1,1.48.58,3.12,3.12,0,0,1-.33,5.44,3.34,3.34,0,0,1-4.54-1.51,3.13,3.13,0,0,1,1.93-4.31c.23-.08.47-.13.71-.2Z"/></g><g id="f22HAf.tif-11" data-name="f22HAf.tif"><path class="cls-1" d="M34,78a1.48,1.48,0,0,1-1-1.68c.16-3.66.27-7.32.41-11,.07-1.89.17-3.77.21-5.66,0-1.06,0-2.13-.06-3.19s-.07-2-.1-3a1.77,1.77,0,0,0-.09-.53c-.11,1.1-.23,2.2-.34,3.3-.16,1.58-.3,3.16-.47,4.73a1.12,1.12,0,0,1-1.82.86,1,1,0,0,1-.4-1c.11-1.2.21-2.4.33-3.6s.23-2.28.37-3.41.24-2.22.46-3.31a3.51,3.51,0,0,1,2-2.42,5.76,5.76,0,0,1,2.74-.6,23.17,23.17,0,0,1,3,.12A4.05,4.05,0,0,1,42.5,50a5.42,5.42,0,0,1,.35,1.64c.24,2.05.46,4.11.68,6.16.11,1,.19,2.06.27,3.09A1,1,0,0,1,43.14,62a1.1,1.1,0,0,1-1.52-.83c-.11-.81-.17-1.62-.25-2.43l-.54-5.24a2.49,2.49,0,0,0-.09-.55,3.64,3.64,0,0,0-.05.38c-.12,3.19-.22,6.38-.07,9.57.13,2.79.21,5.58.32,8.36.06,1.69.11,3.39.21,5.08a1.47,1.47,0,0,1-1,1.68h-.56a1.58,1.58,0,0,1-1.07-1.56c-.12-1.52-.29-3-.44-4.55q-.4-3.91-.8-7.81c0-.41-.1-.82-.15-1.23a7.5,7.5,0,0,0-.22,1.29c-.17,1.75-.34,3.49-.52,5.24-.24,2.36-.5,4.71-.73,7.07A1.58,1.58,0,0,1,34.56,78Z"/><path class="cls-1" d="M37.44,40.31a8.51,8.51,0,0,1,1.48.58,3.12,3.12,0,0,1-.33,5.44A3.34,3.34,0,0,1,34,44.82,3.13,3.13,0,0,1,36,40.51c.23-.08.47-.13.71-.2Z"/></g><g id="f22HAf.tif-12" data-name="f22HAf.tif"><path class="cls-2" d="M49.16,78a1.48,1.48,0,0,1-1-1.68c.16-3.66.27-7.32.41-11,.07-1.89.17-3.77.21-5.66,0-1.06,0-2.13-.06-3.19s-.07-2-.1-3a1.77,1.77,0,0,0-.09-.53c-.11,1.1-.23,2.2-.34,3.3-.16,1.58-.3,3.16-.47,4.73a1.12,1.12,0,0,1-1.82.86,1,1,0,0,1-.4-1c.11-1.2.21-2.4.33-3.6s.23-2.28.37-3.41.24-2.22.46-3.31a3.51,3.51,0,0,1,2-2.42,5.76,5.76,0,0,1,2.74-.6,23.17,23.17,0,0,1,3,.12A4.05,4.05,0,0,1,57.66,50,5.42,5.42,0,0,1,58,51.62c.24,2.05.46,4.11.68,6.16.11,1,.19,2.06.27,3.09A1,1,0,0,1,58.3,62a1.1,1.1,0,0,1-1.52-.83c-.11-.81-.17-1.62-.25-2.43L56,53.49a2.49,2.49,0,0,0-.09-.55,3.64,3.64,0,0,0-.05.38c-.12,3.19-.22,6.38-.07,9.57.13,2.79.21,5.58.32,8.36.06,1.69.11,3.39.21,5.08a1.47,1.47,0,0,1-1,1.68h-.56a1.58,1.58,0,0,1-1.07-1.56c-.12-1.52-.29-3-.44-4.55q-.4-3.91-.8-7.81c0-.41-.1-.82-.15-1.23A7.5,7.5,0,0,0,52,64.15c-.17,1.75-.34,3.49-.52,5.24-.24,2.36-.5,4.71-.73,7.07A1.58,1.58,0,0,1,49.72,78Z"/><path class="cls-2" d="M52.59,40.31a8.51,8.51,0,0,1,1.48.58,3.12,3.12,0,0,1-.33,5.44,3.34,3.34,0,0,1-4.54-1.51,3.13,3.13,0,0,1,1.93-4.31c.23-.08.47-.13.71-.2Z"/></g><g id="f22HAf.tif-13" data-name="f22HAf.tif"><path class="cls-2" d="M64.31,78a1.48,1.48,0,0,1-1-1.68c.16-3.66.27-7.32.41-11,.07-1.89.17-3.77.21-5.66,0-1.06,0-2.13-.06-3.19s-.07-2-.1-3a1.77,1.77,0,0,0-.09-.53c-.11,1.1-.23,2.2-.34,3.3-.16,1.58-.3,3.16-.47,4.73a1.12,1.12,0,0,1-1.82.86,1,1,0,0,1-.4-1c.11-1.2.21-2.4.33-3.6s.23-2.28.37-3.41.24-2.22.46-3.31a3.51,3.51,0,0,1,2-2.42,5.76,5.76,0,0,1,2.74-.6,23.17,23.17,0,0,1,3,.12A4.05,4.05,0,0,1,72.81,50a5.42,5.42,0,0,1,.35,1.64c.24,2.05.46,4.11.68,6.16.11,1,.19,2.06.27,3.09A1,1,0,0,1,73.45,62a1.1,1.1,0,0,1-1.52-.83c-.11-.81-.17-1.62-.25-2.43l-.54-5.24a2.49,2.49,0,0,0-.09-.55,3.64,3.64,0,0,0-.05.38c-.12,3.19-.22,6.38-.07,9.57.13,2.79.21,5.58.32,8.36.06,1.69.11,3.39.21,5.08a1.47,1.47,0,0,1-1,1.68h-.56a1.58,1.58,0,0,1-1.07-1.56c-.12-1.52-.29-3-.44-4.55q-.4-3.91-.8-7.81c0-.41-.1-.82-.15-1.23a7.5,7.5,0,0,0-.22,1.29c-.17,1.75-.34,3.49-.52,5.24-.24,2.36-.5,4.71-.73,7.07A1.58,1.58,0,0,1,64.87,78Z"/><path class="cls-2" d="M67.75,40.31a8.51,8.51,0,0,1,1.48.58,3.12,3.12,0,0,1-.33,5.44,3.34,3.34,0,0,1-4.54-1.51,3.13,3.13,0,0,1,1.93-4.31c.23-.08.47-.13.71-.2Z"/></g><g id="f22HAf.tif-14" data-name="f22HAf.tif"><path class="cls-2" d="M79.47,78a1.48,1.48,0,0,1-1-1.68c.16-3.66.27-7.32.41-11,.07-1.89.17-3.77.21-5.66,0-1.06,0-2.13-.06-3.19s-.07-2-.1-3a1.77,1.77,0,0,0-.09-.53c-.11,1.1-.23,2.2-.34,3.3-.16,1.58-.3,3.16-.47,4.73a1.12,1.12,0,0,1-1.82.86,1,1,0,0,1-.4-1c.11-1.2.21-2.4.33-3.6s.23-2.28.37-3.41.24-2.22.46-3.31a3.51,3.51,0,0,1,2-2.42,5.76,5.76,0,0,1,2.74-.6,23.17,23.17,0,0,1,3,.12A4.05,4.05,0,0,1,88,50a5.42,5.42,0,0,1,.35,1.64c.24,2.05.46,4.11.68,6.16.11,1,.19,2.06.27,3.09A1,1,0,0,1,88.61,62a1.1,1.1,0,0,1-1.52-.83c-.11-.81-.17-1.62-.25-2.43l-.54-5.24a2.49,2.49,0,0,0-.09-.55,3.64,3.64,0,0,0-.05.38c-.12,3.19-.22,6.38-.07,9.57.13,2.79.21,5.58.32,8.36.06,1.69.11,3.39.21,5.08a1.47,1.47,0,0,1-1,1.68H85A1.58,1.58,0,0,1,84,76.45c-.12-1.52-.29-3-.44-4.55q-.4-3.91-.8-7.81c0-.41-.1-.82-.15-1.23a7.5,7.5,0,0,0-.22,1.29c-.17,1.75-.34,3.49-.52,5.24-.24,2.36-.5,4.71-.73,7.07A1.58,1.58,0,0,1,80,78Z"/><path class="cls-2" d="M82.9,40.31a8.51,8.51,0,0,1,1.48.58,3.12,3.12,0,0,1-.33,5.44,3.34,3.34,0,0,1-4.54-1.51,3.13,3.13,0,0,1,1.93-4.31c.23-.08.47-.13.71-.2Z"/></g><g id="f22HAf.tif-15" data-name="f22HAf.tif"><path class="cls-1" d="M94.62,78a1.48,1.48,0,0,1-1-1.68c.16-3.66.27-7.32.41-11,.07-1.89.17-3.77.21-5.66,0-1.06,0-2.13-.06-3.19s-.07-2-.1-3a1.77,1.77,0,0,0-.09-.53c-.11,1.1-.23,2.2-.34,3.3-.16,1.58-.3,3.16-.47,4.73a1.12,1.12,0,0,1-1.82.86,1,1,0,0,1-.4-1c.11-1.2.21-2.4.33-3.6s.23-2.28.37-3.41.24-2.22.46-3.31a3.51,3.51,0,0,1,2-2.42,5.76,5.76,0,0,1,2.74-.6,23.17,23.17,0,0,1,3,.12A4.05,4.05,0,0,1,103.12,50a5.42,5.42,0,0,1,.35,1.64c.24,2.05.46,4.11.68,6.16.11,1,.19,2.06.27,3.09a1,1,0,0,1-.67,1.11,1.1,1.1,0,0,1-1.52-.83c-.11-.81-.17-1.62-.25-2.43l-.54-5.24a2.49,2.49,0,0,0-.09-.55,3.64,3.64,0,0,0-.05.38c-.12,3.19-.22,6.38-.07,9.57.13,2.79.21,5.58.32,8.36.06,1.69.11,3.39.21,5.08a1.47,1.47,0,0,1-1,1.68h-.56a1.58,1.58,0,0,1-1.07-1.56c-.12-1.52-.29-3-.44-4.55q-.4-3.91-.8-7.81c0-.41-.1-.82-.15-1.23a7.5,7.5,0,0,0-.22,1.29c-.17,1.75-.34,3.49-.52,5.24-.24,2.36-.5,4.71-.73,7.07A1.58,1.58,0,0,1,95.18,78Z"/><path class="cls-1" d="M98.05,40.31a8.51,8.51,0,0,1,1.48.58,3.12,3.12,0,0,1-.33,5.44,3.34,3.34,0,0,1-4.54-1.51,3.13,3.13,0,0,1,1.93-4.31c.23-.08.47-.13.71-.2Z"/></g><g id="f22HAf.tif-16" data-name="f22HAf.tif"><path class="cls-2" d="M109.77,78a1.48,1.48,0,0,1-1-1.68c.16-3.66.27-7.32.41-11,.07-1.89.17-3.77.21-5.66,0-1.06,0-2.13-.06-3.19s-.07-2-.1-3a1.77,1.77,0,0,0-.09-.53c-.11,1.1-.23,2.2-.34,3.3-.16,1.58-.3,3.16-.47,4.73a1.12,1.12,0,0,1-1.82.86,1,1,0,0,1-.4-1c.11-1.2.21-2.4.33-3.6s.23-2.28.37-3.41.24-2.22.46-3.31a3.51,3.51,0,0,1,2-2.42,5.76,5.76,0,0,1,2.74-.6,23.17,23.17,0,0,1,3,.12A4.05,4.05,0,0,1,118.28,50a5.42,5.42,0,0,1,.35,1.64c.24,2.05.46,4.11.68,6.16.11,1,.19,2.06.27,3.09a1,1,0,0,1-.67,1.11,1.1,1.1,0,0,1-1.52-.83c-.11-.81-.17-1.62-.25-2.43l-.54-5.24a2.49,2.49,0,0,0-.09-.55,3.64,3.64,0,0,0-.05.38c-.12,3.19-.22,6.38-.07,9.57.13,2.79.21,5.58.32,8.36.06,1.69.11,3.39.21,5.08a1.47,1.47,0,0,1-1,1.68h-.56a1.58,1.58,0,0,1-1.07-1.56c-.12-1.52-.29-3-.44-4.55q-.4-3.91-.8-7.81c0-.41-.1-.82-.15-1.23a7.5,7.5,0,0,0-.22,1.29c-.17,1.75-.34,3.49-.52,5.24-.24,2.36-.5,4.71-.73,7.07A1.58,1.58,0,0,1,110.34,78Z"/><path class="cls-2" d="M113.21,40.31a8.51,8.51,0,0,1,1.48.58,3.12,3.12,0,0,1-.33,5.44,3.34,3.34,0,0,1-4.54-1.51,3.13,3.13,0,0,1,1.93-4.31c.23-.08.47-.13.71-.2Z"/></g></g></g></svg>