<svg xmlns="http://www.w3.org/2000/svg" viewBox="0 0 307.84 12.25"><defs><style>.cls-1{fill:#e6e7e8;}</style></defs><title>subtitle</title><g id="Layer_2" data-name="Layer 2"><g id="templates"><path class="cls-1" d="M7.94.36,7.77,1.68a26.9,26.9,0,0,0-3.1-.14C2.5,1.54,1.8,2.65,1.8,6.12s.7,4.58,2.87,4.58A20.11,20.11,0,0,0,8,10.52l.17,1.3a11.64,11.64,0,0,1-3.51.41C1.23,12.23,0,10.62,0,6.12S1.23,0,4.67,0A12.21,12.21,0,0,1,7.94.36Z"/><path class="cls-1" d="M12.58,9.49c0,.8.29,1.09,1.08,1.09h4.19l.08,1.32c-1.47.14-3,.15-4.55.15-1.88,0-2.51-1-2.51-2.33V.22h1.71Z"/><path class="cls-1" d="M20.61,12V.22h1.71V12Z"/><path class="cls-1" d="M35.08,11.36c0,.45-.22.67-.63.67H32.82a.73.73,0,0,1-.74-.53l-3.68-8a12.66,12.66,0,0,1-.7-1.64h-.24a13.4,13.4,0,0,1,.09,1.64V12H25.84V.89a.59.59,0,0,1,.65-.67h1.57a.76.76,0,0,1,.75.53l3.58,7.83c.22.48.56,1.16.82,1.76h.26c-.05-.62-.08-1.21-.08-1.83V.22h1.69Z"/><path class="cls-1" d="M38.62,12V.22h1.71V12Z"/><path class="cls-1" d="M51.44.36l-.17,1.32a26.9,26.9,0,0,0-3.1-.14C46,1.54,45.3,2.65,45.3,6.12s.7,4.58,2.87,4.58a20.11,20.11,0,0,0,3.34-.19l.17,1.3a11.64,11.64,0,0,1-3.51.41c-3.44,0-4.67-1.61-4.67-6.11S44.74,0,48.17,0A12.21,12.21,0,0,1,51.44.36Z"/><path class="cls-1" d="M56.7,8.47,55.6,12H53.86L57.55.68a.63.63,0,0,1,.63-.46h1.75a.61.61,0,0,1,.62.46L64.26,12H62.49L61.4,8.47Zm2.87-6c-.09-.31-.21-.65-.29-1h-.46l-.27,1L57.16,7h3.78Z"/><path class="cls-1" d="M68.32,9.49c0,.8.29,1.09,1.08,1.09h4.19l.08,1.32c-1.47.14-3,.15-4.55.15-1.88,0-2.51-1-2.51-2.33V.22h1.71Z"/><path class="cls-1" d="M88.23,11.92c-1.56.14-3.37.14-5.06.14a2.11,2.11,0,0,1-2.38-2.12V2.31A2.12,2.12,0,0,1,83.17.19c1.69,0,3.51,0,5.06.14l-.09,1.33H83.46c-.68,0-.94.29-.94,1.09V5.11h5V6.5h-5v3c0,.8.26,1.09.94,1.09h4.69Z"/><path class="cls-1" d="M99.13,3.8c0,2.94-1,3.75-3.66,3.75a23,23,0,0,1-2.6-.15V12H91.16V.22A34.68,34.68,0,0,1,95.27.07C98.17.07,99.13.89,99.13,3.8Zm-3.9,2.28c1.64,0,2.17-.48,2.17-2.28s-.53-2.26-2.17-2.26c-.91,0-1.71,0-2.36,0V6.07Z"/><path class="cls-1" d="M102,12V.22h1.71V12Z"/><path class="cls-1" d="M116.16,6.12c0,4.58-1.23,6.06-4.67,6.06-1.64,0-3-.07-4.26-.15V.22c1.25-.08,2.6-.15,4.26-.15C114.93.07,116.16,1.54,116.16,6.12Zm-1.81,0c0-3.44-.7-4.57-2.86-4.57-1,0-1.8,0-2.55,0v9.07c.74,0,1.59,0,2.55,0C113.65,10.69,114.35,9.56,114.35,6.12Z"/><path class="cls-1" d="M126.69,11.92c-1.56.14-3.37.14-5.06.14a2.11,2.11,0,0,1-2.38-2.12V2.31A2.12,2.12,0,0,1,121.63.19c1.69,0,3.51,0,5.06.14l-.09,1.33h-4.69c-.68,0-.94.29-.94,1.09V5.11h5V6.5h-5v3c0,.8.26,1.09.94,1.09h4.69Z"/><path class="cls-1" d="M141,.22a.65.65,0,0,1,.7.7l.48,11.1h-1.71L140,1.64h-.34L137.31,10a.69.69,0,0,1-.74.58h-1.49a.71.71,0,0,1-.75-.58l-2.41-8.4h-.32L131.21,12h-1.69L130,.92a.65.65,0,0,1,.7-.7h1.9a.7.7,0,0,1,.72.58l2,6.91c.15.55.27,1.06.39,1.59H136c.12-.55.24-1,.41-1.61l2-6.89a.72.72,0,0,1,.75-.58Z"/><path class="cls-1" d="M145.51,12V.22h1.71V12Z"/><path class="cls-1" d="M159.83,6.12c0,4.64-1.23,6.12-4.72,6.12s-4.7-1.49-4.7-6.12S151.63,0,155.1,0,159.83,1.49,159.83,6.12Zm-7.63,0c0,3.49.7,4.6,2.91,4.6S158,9.61,158,6.12s-.7-4.6-2.92-4.6S152.2,2.63,152.2,6.12Z"/><path class="cls-1" d="M164.68,9.49c0,.8.29,1.09,1.08,1.09H170l.08,1.32c-1.47.14-3,.15-4.55.15-1.88,0-2.51-1-2.51-2.33V.22h1.71Z"/><path class="cls-1" d="M181.55,6.12c0,4.64-1.23,6.12-4.72,6.12s-4.7-1.49-4.7-6.12S173.35,0,176.83,0,181.55,1.49,181.55,6.12Zm-7.63,0c0,3.49.7,4.6,2.91,4.6s2.92-1.11,2.92-4.6-.7-4.6-2.92-4.6S173.92,2.63,173.92,6.12Z"/><path class="cls-1" d="M193,12h-1.27l-.17-1.18a5.18,5.18,0,0,1-3.51,1.4c-2.62,0-3.7-1.93-3.7-6.17,0-4.72,1.32-6.07,5-6.07a13.7,13.7,0,0,1,3.28.36l-.17,1.3c-1.08-.1-2.24-.14-3-.14-2.46,0-3.32.58-3.32,4.67,0,3.39.6,4.57,2.36,4.57a4.88,4.88,0,0,0,2.79-1V5.22H193Z"/><path class="cls-1" d="M200.86,12h-1.71V7.9L195.25.22h1.81l2.38,4.84A13.05,13.05,0,0,1,200,6.43h.12a11.46,11.46,0,0,1,.51-1.35L203,.22h1.78l-3.88,7.71Z"/><path class="cls-1" d="M218.41,12l-1-3.68a1.42,1.42,0,0,0-1.49-1.18l-2.43,0V12h-1.69V.22a35,35,0,0,1,4.12-.15c2.77,0,3.9.77,3.9,3.42,0,1.86-.6,2.81-2.17,3v.08a2.24,2.24,0,0,1,1.49,1.71L220.24,12ZM215.88,5.7c1.66,0,2.21-.48,2.21-2.1s-.55-2.05-2.21-2.05c-.92,0-1.75,0-2.4,0V5.7Z"/><path class="cls-1" d="M230.4,11.92c-1.56.14-3.37.14-5.06.14A2.11,2.11,0,0,1,223,9.94V2.31A2.12,2.12,0,0,1,225.34.19c1.69,0,3.51,0,5.06.14l-.09,1.33h-4.69c-.68,0-.94.29-.94,1.09V5.11h5V6.5h-5v3c0,.8.26,1.09.94,1.09h4.69Z"/><path class="cls-1" d="M240.43.38l-.1,1.25c-1,0-2.28-.09-3.39-.09-1.61,0-2.22.07-2.22,1.64,0,1.21.43,1.54,1.42,1.8l2.34.65c1.83.5,2.39,1.59,2.39,3.35,0,2.72-1.18,3.25-4,3.25a20,20,0,0,1-3.71-.34l.12-1.27c2.14.07,2.74.09,3.63.09,1.73,0,2.24-.27,2.24-1.75,0-1.28-.44-1.56-1.4-1.81l-2.39-.67C233.61,6,233,4.93,233,3.13,233,.39,234.21,0,236.88,0A15.22,15.22,0,0,1,240.43.38Z"/><path class="cls-1" d="M253,6.12c0,4.64-1.23,6.12-4.72,6.12s-4.7-1.49-4.7-6.12S244.77,0,248.24,0,253,1.49,253,6.12Zm-7.63,0c0,3.49.7,4.6,2.91,4.6s2.92-1.11,2.92-4.6-.7-4.6-2.92-4.6S245.33,2.63,245.33,6.12Z"/><path class="cls-1" d="M264.75,7.47c0,3.46-1.15,4.77-4.28,4.77s-4.41-1.32-4.41-4.77V.22h1.71V7.47c0,2.43.67,3.25,2.63,3.25S263,9.9,263,7.47V.22h1.71Z"/><path class="cls-1" d="M274.85,12l-1-3.68a1.42,1.42,0,0,0-1.49-1.18l-2.43,0V12h-1.69V.22a35,35,0,0,1,4.12-.15c2.77,0,3.9.77,3.9,3.42,0,1.86-.6,2.81-2.17,3v.08a2.24,2.24,0,0,1,1.49,1.71L276.68,12ZM272.32,5.7c1.66,0,2.21-.48,2.21-2.1s-.55-2.05-2.21-2.05c-.92,0-1.75,0-2.4,0V5.7Z"/><path class="cls-1" d="M287,.36l-.17,1.32a26.9,26.9,0,0,0-3.1-.14c-2.17,0-2.87,1.11-2.87,4.58s.7,4.58,2.87,4.58a20.11,20.11,0,0,0,3.34-.19l.17,1.3a11.64,11.64,0,0,1-3.51.41c-3.44,0-4.67-1.61-4.67-6.11S280.32,0,283.75,0A12.21,12.21,0,0,1,287,.36Z"/><path class="cls-1" d="M297.37,11.92c-1.56.14-3.37.14-5.06.14a2.11,2.11,0,0,1-2.38-2.12V2.31A2.12,2.12,0,0,1,292.3.19c1.69,0,3.51,0,5.06.14l-.09,1.33h-4.69c-.68,0-.94.29-.94,1.09V5.11h5V6.5h-5v3c0,.8.26,1.09.94,1.09h4.69Z"/><path class="cls-1" d="M307.4.38l-.1,1.25c-1,0-2.28-.09-3.39-.09-1.61,0-2.22.07-2.22,1.64,0,1.21.43,1.54,1.42,1.8l2.34.65c1.83.5,2.39,1.59,2.39,3.35,0,2.72-1.18,3.25-4,3.25a20,20,0,0,1-3.71-.34l.12-1.27c2.14.07,2.74.09,3.63.09,1.73,0,2.24-.27,2.24-1.75,0-1.28-.44-1.56-1.4-1.81l-2.39-.67C300.57,6,300,4.93,300,3.13,300,.39,301.17,0,303.84,0A15.22,15.22,0,0,1,307.4.38Z"/></g></g></svg>