<svg xmlns="http://www.w3.org/2000/svg" viewBox="0 0 2624.29 232.25"><title>tagline</title><g id="Layer_2" data-name="Layer 2"><g id="Layer_2-2" data-name="Layer 2"><path d="M227.44,53.19,215.67,78H208L243.47,4.69a3,3,0,0,1,2.94-1.85h8.18A2.6,2.6,0,0,1,257.2,5l14.93,73h-7.19l-4.79-24.85Zm25.29-38.47-1-6.32h-3.27c-1,2.07-2,4.36-2.94,6.32L230.39,46.87h28.56Z"/><path d="M326.2,78h-5.34l1.09-12.42c-6.54,7.19-15.8,13.73-25.83,13.73-11.33,0-15.15-8.07-12.21-28.12,3.27-23.21,10.36-27.36,26.16-27.36a133.41,133.41,0,0,1,17.11,1.31,85.57,85.57,0,0,1,1-10.14L330,1.74h7Zm-4.25-18,4-30c-5.67-.22-10-.44-13.62-.44-15.48,0-18.86,3.27-21.47,22.12-2.29,15.8-1.2,21.47,7,21.47C305.27,73.24,313,68.88,321.95,60.06Z"/><path d="M394.86,25.29a130.8,130.8,0,0,1-11.22,31.28c-4.14,7.74-7.85,13.84-10.46,17-2.29,3.16-4.36,4.47-8.61,4.47h-6.32a2.49,2.49,0,0,1-2.51-2L345.16,25.29h7.2l8.94,47.19h1.85c2.51,0,3.71-.54,5.56-2.94a105.71,105.71,0,0,0,9.16-15.8,105,105,0,0,0,9.81-28.45Z"/><path d="M452.52,26l-7.41,52h-5.34l1-12c-6.76,8-15.91,13.3-24.63,13.3-13,0-16.35-7.74-13.3-28.12,3.38-23.11,10.25-27.36,26.71-27.36A149.2,149.2,0,0,1,452.52,26ZM440.86,60.16l4.14-30c-5.78-.22-10.25-.44-13.52-.44-15.8,0-19,3.27-21.8,22-2.4,16.57-1.09,21.47,7.52,21.47C424.29,73.24,432.47,68.67,440.86,60.16Z"/><path d="M513.67,38.58,508,78h-6.87l5.34-38c1.09-7.52-1.2-10.14-7.3-10.14-7.08,0-14.06,4.69-24.3,12.64L470.07,78h-7l7.52-52.75h5.45l-1.09,12c9.81-8.5,18.2-13.41,26.16-13.41C510.29,23.87,515,29,513.67,38.58Z"/><path d="M571.11,26.27l-1.2,4.47a107,107,0,0,0-13.84-.87c-14,0-19.73,4.47-22,22s1.63,21.47,15.15,21.47a97.93,97.93,0,0,0,15.69-1.2l.54,4.8a62.16,62.16,0,0,1-17.33,2.4c-18.31,0-24.2-7.74-21.25-28S537.22,23.87,555,23.87C559.56,23.87,566.43,24.52,571.11,26.27Z"/><path d="M578.64,78,586,25.29h6.87L585.5,78ZM594,3.05a1.91,1.91,0,0,1,2.07,2.4l-.87,6.43A2,2,0,0,1,592.8,14h-3.16a1.94,1.94,0,0,1-2.18-2.4l1-6.43c.11-1.42.76-2.07,2.4-2.07Z"/><path d="M654.39,38.58,648.72,78h-6.87l5.34-38c1.09-7.52-1.2-10.14-7.3-10.14-7.09,0-14.06,4.69-24.31,12.64L610.79,78h-7l7.52-52.75h5.45l-1.09,12c9.81-8.5,18.2-13.41,26.16-13.41C651,23.87,655.7,29,654.39,38.58Z"/><path d="M710.74,77.6c-1.85,14.17-10.36,23.11-27.9,23.76-3.49.22-13.19.11-19.07-1.2l.76-4.69c5.23.22,10.57.33,18.09,0,11.23-.65,19.07-5.34,21.14-16.79,1.09-6.1,2.07-10.9,3.92-14.28-6.87,8.72-16.79,14.93-26.38,14.93-12,0-16.24-7.3-13.08-28.12C671.72,28,678.7,23.87,694.39,23.87A152.42,152.42,0,0,1,717.93,26h.54Zm.11-47.41c-5.89-.22-10.46-.44-14.06-.44-15.48,0-18.75,3.27-21.58,22-2.4,16.46-1.09,21.47,7.52,21.47,7.08,0,15.15-4.69,23.65-13.19Z"/><path d="M797.83,77.6c-1.85,14.17-10.35,23.11-27.9,23.76-3.49.22-13.19.11-19.07-1.2l.76-4.69c5.23.22,10.57.33,18.09,0,11.23-.65,19.07-5.34,21.14-16.79,1.09-6.1,2.07-10.9,3.92-14.28C787.91,73.13,778,79.35,768.4,79.35c-12,0-16.24-7.3-13.08-28.12,3.49-23.21,10.46-27.36,26.16-27.36A152.41,152.41,0,0,1,805,26h.54Zm.11-47.41c-5.88-.22-10.46-.44-14.06-.44-15.48,0-18.75,3.27-21.58,22-2.4,16.46-1.09,21.47,7.52,21.47,7.09,0,15.15-4.69,23.65-13.19Z"/><path d="M824.87,65.07c-.87,5.23,1.2,7.52,6.43,7.52H837l.33,5.23c-1.85.76-6.43,1.09-8.72,1.09-7.63,0-11.88-4.69-10.79-12.86l9-64.31h6.87Z"/><path d="M896.37,52c-2.83,20.16-10.25,27.36-27.58,27.36-17.55,0-23.65-7.52-20.82-28,2.72-20.05,10-27.47,27.68-27.47S899.31,31.61,896.37,52Zm-41.2,0c-2.4,16.46,1,21.47,13.62,21.47,12.86,0,18.09-5.34,20.49-22.13,2.29-16.57-1.09-21.47-13.62-21.47C862.9,29.86,857.56,34.88,855.17,52Z"/><path d="M957.84,52.1c-3.27,23.54-10.57,27.25-25.18,27.25a89.9,89.9,0,0,1-24.42-3.6h-.11l10.46-74h6.87l-3.16,21.91a94.1,94.1,0,0,1-2.72,13.84c7.3-7.3,16.68-13.52,24.52-13.52C956.21,24,960.89,30.3,957.84,52.1Zm-15.26-22c-5.78,0-13.41,4.36-22.89,12.64l-4.14,29.75a125.65,125.65,0,0,0,14.82,1.09c14.82,0,17.88-3.71,20.38-22C953.15,34.44,951.3,30.08,942.58,30.08Z"/><path d="M1021.6,26l-7.41,52h-5.34l1-12c-6.76,8-15.91,13.3-24.63,13.3-13,0-16.35-7.74-13.3-28.12,3.38-23.11,10.25-27.36,26.71-27.36A149.2,149.2,0,0,1,1021.6,26Zm-11.66,34.11,4.14-30c-5.78-.22-10.25-.44-13.52-.44-15.8,0-19,3.27-21.8,22-2.4,16.57-1.09,21.47,7.52,21.47C993.38,73.24,1001.55,68.67,1009.94,60.16Z"/><path d="M1041.12,65.07c-.87,5.23,1.2,7.52,6.43,7.52h5.67l.33,5.23c-1.85.76-6.43,1.09-8.72,1.09-7.63,0-11.88-4.69-10.79-12.86l9-64.31h6.87Z"/><path d="M1134.64,52.1c-3.38,23.11-10.36,27.25-26.38,27.25a133.36,133.36,0,0,1-17-1.31,84.87,84.87,0,0,1-.87,10.25l-2,12.53h-6.87l10.68-75.53h5.45L1096.6,37.6C1103.68,30.08,1114,24,1121.45,24,1134.2,24,1137.58,31.28,1134.64,52.1Zm-14.5-22c-5.56,0-14.93,4.58-23.54,13.08l-4.14,30.08c5.78.22,10.25.33,13.52.33,15.7,0,19-3.16,21.69-22C1129.95,35,1128.75,30.08,1120.14,30.08Z"/><path d="M1190.45,78h-5.34l1.09-12.21c-9.26,8.94-17.22,13.51-25.18,13.51-9.59,0-13.84-5.34-12.54-14.6L1154,25.29h7l-5.45,37.93c-1.09,7.19,1.31,10.14,7.63,10.14,7.08,0,13.3-4.58,22.89-13.41l4.9-34.66h6.87Z"/><path d="M1258.13,52.1c-3.27,23.54-10.57,27.25-25.18,27.25a89.9,89.9,0,0,1-24.42-3.6h-.11l10.46-74h6.87l-3.16,21.91a94.1,94.1,0,0,1-2.72,13.84c7.3-7.3,16.68-13.52,24.52-13.52C1256.5,24,1261.18,30.3,1258.13,52.1Zm-15.26-22c-5.78,0-13.41,4.36-22.89,12.64l-4.14,29.75a125.65,125.65,0,0,0,14.82,1.09c14.82,0,17.88-3.71,20.38-22C1253.45,34.44,1251.59,30.08,1242.87,30.08Z"/><path d="M1279.28,65.07c-.87,5.23,1.2,7.52,6.43,7.52h5.67l.33,5.23c-1.85.76-6.43,1.09-8.72,1.09-7.63,0-11.88-4.69-10.79-12.86l9-64.31h6.87Z"/><path d="M1301.73,78l7.41-52.75H1316L1308.6,78Zm15.37-75a1.91,1.91,0,0,1,2.07,2.4l-.87,6.43a2,2,0,0,1-2.4,2.07h-3.16a1.94,1.94,0,0,1-2.18-2.4l1-6.43c.11-1.42.76-2.07,2.4-2.07Z"/><path d="M1372.36,26.27l-1.2,4.47a107,107,0,0,0-13.84-.87c-14,0-19.73,4.47-22,22s1.63,21.47,15.15,21.47a98,98,0,0,0,15.7-1.2l.54,4.8a62.17,62.17,0,0,1-17.33,2.4c-18.31,0-24.2-7.74-21.25-28s10.36-27.47,28.12-27.47C1360.81,23.87,1367.67,24.52,1372.36,26.27Z"/><path d="M1454.54,38.58,1448.88,78H1442l5.34-38c1.09-7.52-1.2-10.14-7.3-10.14-7.08,0-14.06,4.58-24.2,12.86L1410.95,78h-7l10.79-76.29h6.87l-2.94,22.12a122.46,122.46,0,0,1-2.62,13.19c9.81-8.39,18.09-13.19,25.94-13.19C1451.17,23.87,1455.85,29,1454.54,38.58Z"/><path d="M1515.15,40.55c-2,9.7-7.3,13-19.18,14.06l-21.69,2.07c-1,13.62,4.14,16.79,15.48,16.79a178.34,178.34,0,0,0,19.4-1.42l.54,4.69c-5,1.74-15.15,2.62-21.25,2.62-18,0-23.43-8.61-20.6-28.67,3.05-21.58,10.68-26.81,28.34-26.81C1511.33,23.87,1517.44,28.77,1515.15,40.55Zm-19.51-10.79c-13,0-17.87,3.05-20.71,21.15l-.11.44L1496,49.26c7.85-.87,10.9-2.72,12.21-9.26C1510.24,30.63,1504.68,29.75,1495.64,29.75Z"/><path d="M1576.19,26l-7.41,52h-5.34l1-12c-6.76,8-15.91,13.3-24.63,13.3-13,0-16.35-7.74-13.3-28.12,3.38-23.11,10.25-27.36,26.71-27.36A149.2,149.2,0,0,1,1576.19,26Zm-11.66,34.11,4.14-30c-5.78-.22-10.25-.44-13.52-.44-15.8,0-19,3.27-21.8,22-2.4,16.57-1.09,21.47,7.52,21.47C1548,73.24,1556.13,68.67,1564.52,60.16Z"/><path d="M1595.7,65.07c-.87,5.23,1.2,7.52,6.43,7.52h5.67l.33,5.23c-1.85.76-6.43,1.09-8.72,1.09-7.63,0-11.88-4.69-10.79-12.86l9-64.31h6.87Z"/><path d="M1629.27,65.07c-.76,5.34,1.2,7.52,6.54,7.52h8.72l.33,5.23a63.3,63.3,0,0,1-11,1.09c-8.83,0-12.64-4.9-11.44-13.3l4.9-34.88h-9.7l.65-4.91,9.81-.54,2.29-16h6.76l-2.29,16h17.88l-.87,5.45h-17.77Z"/><path d="M1707.42,38.58,1701.75,78h-6.87l5.34-38c1.09-7.52-1.2-10.14-7.3-10.14-7.08,0-14.06,4.58-24.2,12.86L1663.82,78h-7l10.79-76.29h6.87l-2.94,22.12a122.46,122.46,0,0,1-2.62,13.19c9.81-8.39,18.09-13.19,25.94-13.19C1704,23.87,1708.73,29,1707.42,38.58Z"/><path d="M1793.86,52.1c-3.27,23.54-10.57,27.25-25.18,27.25a89.89,89.89,0,0,1-24.41-3.6h-.11l10.46-74h6.87l-3.16,21.91a94.61,94.61,0,0,1-2.72,13.84c7.3-7.3,16.68-13.52,24.52-13.52C1792.22,24,1796.91,30.3,1793.86,52.1Zm-15.26-22c-5.78,0-13.41,4.36-22.89,12.64l-4.14,29.75a125.65,125.65,0,0,0,14.82,1.09c14.82,0,17.88-3.71,20.38-22C1789.17,34.44,1787.32,30.08,1778.6,30.08Z"/><path d="M1857.07,25.29a164.46,164.46,0,0,1-17.66,44.8c-11.23,19.62-20.16,28-32.81,30.52l-1.2-4.8c8.17-2.18,14.82-7.3,21.91-17.77h-4.47a5.67,5.67,0,0,1-5.78-4.58l-10.46-48.18h7.3l9,44.91a2.7,2.7,0,0,0,2.72,2.29h5.12l2.51-4.36c8-14.17,12.64-26.49,16.57-42.83Z"/><path d="M1917.35,5.78c-7.63,0-10.9,2.4-12,10.25l-1.31,9.26h17.88l-.87,5.45h-17.77l-7.63,54.5c-1.42,9.81-6.21,15-16,15-2.94,0-7.3-.22-11.55-.65l1-5.12h8.39c7.2,0,10.25-2.4,11.34-10.25l7.63-53.52h-9.59l.65-4.91,9.7-.54L1898.61,15c1.31-9.81,6.32-15,16.57-15,3.49,0,10.25.22,14.28.65l-1,5.12Z"/><path d="M1976.76,26l-7.41,52H1964l1-12c-6.76,8-15.91,13.3-24.63,13.3-13,0-16.35-7.74-13.3-28.12,3.38-23.11,10.25-27.36,26.7-27.36A149.22,149.22,0,0,1,1976.76,26Zm-11.66,34.11,4.14-30c-5.78-.22-10.24-.44-13.51-.44-15.8,0-19,3.27-21.8,22-2.4,16.57-1.09,21.47,7.52,21.47C1948.53,73.24,1956.7,68.67,1965.09,60.16Z"/><path d="M2032.78,26.27l-1.2,4.47a107,107,0,0,0-13.84-.87c-14,0-19.73,4.47-22,22s1.63,21.47,15.15,21.47a98,98,0,0,0,15.7-1.2l.54,4.8a62.17,62.17,0,0,1-17.33,2.4c-18.31,0-24.2-7.74-21.25-28s10.36-27.47,28.12-27.47C2021.23,23.87,2028.09,24.52,2032.78,26.27Z"/><path d="M2040.3,78l7.41-52.75h6.87L2047.17,78Zm15.37-75a1.91,1.91,0,0,1,2.07,2.4l-.87,6.43a2,2,0,0,1-2.4,2.07h-3.16a2,2,0,0,1-2.18-2.4l1-6.43c.11-1.42.76-2.07,2.4-2.07Z"/><path d="M2074.42,65.07c-.87,5.23,1.2,7.52,6.43,7.52h5.67l.33,5.23c-1.85.76-6.43,1.09-8.72,1.09-7.63,0-11.88-4.69-10.79-12.86l9-64.31h6.87Z"/><path d="M2096.87,78l7.41-52.75h6.87L2103.74,78Zm15.37-75a1.91,1.91,0,0,1,2.07,2.4l-.87,6.43A2,2,0,0,1,2111,14h-3.16a1.94,1.94,0,0,1-2.18-2.4l1-6.43c.11-1.42.76-2.07,2.4-2.07Z"/><path d="M2134.26,65.07c-.76,5.34,1.2,7.52,6.54,7.52h8.72l.33,5.23a63.3,63.3,0,0,1-11,1.09c-8.83,0-12.64-4.9-11.44-13.3l4.9-34.88h-9.7l.65-4.91,9.81-.54,2.29-16h6.76l-2.29,16h17.88l-.87,5.45h-17.77Z"/><path d="M2213.39,26,2206,78h-5.34l1-12c-6.76,8-15.91,13.3-24.63,13.3-13,0-16.35-7.74-13.3-28.12,3.38-23.11,10.25-27.36,26.71-27.36A149.2,149.2,0,0,1,2213.39,26Zm-11.66,34.11,4.14-30c-5.78-.22-10.25-.44-13.52-.44-15.8,0-19,3.27-21.8,22-2.4,16.57-1.09,21.47,7.52,21.47C2185.16,73.24,2193.33,68.67,2201.73,60.16Z"/><path d="M2236.17,65.07c-.76,5.34,1.2,7.52,6.54,7.52h8.72l.33,5.23a63.3,63.3,0,0,1-11,1.09c-8.83,0-12.64-4.9-11.45-13.3l4.9-34.88h-9.7l.65-4.91,9.81-.54,2.29-16H2244l-2.29,16h17.88l-.87,5.45H2241Z"/><path d="M2264.29,78l7.41-52.75h6.87L2271.16,78Zm15.37-75a1.91,1.91,0,0,1,2.07,2.4l-.87,6.43a2,2,0,0,1-2.4,2.07h-3.16a2,2,0,0,1-2.18-2.4l1-6.43c.11-1.42.76-2.07,2.4-2.07Z"/><path d="M2340,38.58,2334.38,78h-6.87l5.34-38c1.09-7.52-1.2-10.14-7.3-10.14-7.08,0-14.06,4.69-24.3,12.64L2296.45,78h-7L2297,25.29h5.45l-1.09,12c9.81-8.5,18.2-13.41,26.16-13.41C2336.67,23.87,2341.35,29,2340,38.58Z"/><path d="M2396.4,77.6c-1.85,14.17-10.35,23.11-27.9,23.76-3.49.22-13.19.11-19.07-1.2l.76-4.69c5.23.22,10.57.33,18.09,0,11.23-.65,19.07-5.34,21.14-16.79,1.09-6.1,2.07-10.9,3.92-14.28-6.87,8.72-16.79,14.93-26.38,14.93-12,0-16.24-7.3-13.08-28.12,3.49-23.21,10.46-27.36,26.16-27.36A152.41,152.41,0,0,1,2403.59,26h.54Zm.11-47.41c-5.88-.22-10.46-.44-14.06-.44-15.48,0-18.75,3.27-21.58,22-2.4,16.46-1.09,21.47,7.52,21.47,7.09,0,15.15-4.69,23.65-13.19Z"/><path d="M11.66,195.87c-.76,5.34,1.2,7.52,6.54,7.52h8.72l.33,5.23a63.3,63.3,0,0,1-11,1.09c-8.83,0-12.64-4.91-11.45-13.3l4.9-34.88H0l.65-4.91,9.81-.54,2.29-16h6.76l-2.29,16H35.1l-.87,5.45H16.46Z"/><path d="M89.81,169.38l-5.67,39.46H77.28l5.34-38c1.09-7.52-1.2-10.14-7.3-10.14-7.09,0-14.06,4.58-24.2,12.86l-4.9,35.31h-7L50,132.54H56.9L54,154.67a122.94,122.94,0,0,1-2.62,13.19c9.81-8.39,18.09-13.19,25.94-13.19C86.43,154.67,91.12,159.79,89.81,169.38Z"/><path d="M150.41,171.34c-2,9.7-7.3,13-19.18,14.06l-21.69,2.07c-1,13.62,4.14,16.78,15.48,16.78a178.13,178.13,0,0,0,19.4-1.42l.54,4.69c-5,1.74-15.15,2.62-21.25,2.62-18,0-23.43-8.61-20.6-28.67,3.05-21.58,10.68-26.81,28.34-26.81C146.6,154.67,152.7,159.57,150.41,171.34ZM130.9,160.55c-13,0-17.87,3.05-20.71,21.14l-.11.44,21.15-2.07c7.85-.87,10.9-2.72,12.21-9.26C145.51,161.43,140,160.55,130.9,160.55Z"/><path d="M233.14,171.34c-2,9.7-7.3,13-19.18,14.06l-21.69,2.07c-1,13.62,4.14,16.78,15.48,16.78a178.1,178.1,0,0,0,19.4-1.42l.54,4.69c-5,1.74-15.15,2.62-21.25,2.62-18,0-23.43-8.61-20.6-28.67,3.05-21.58,10.68-26.81,28.34-26.81C229.33,154.67,235.43,159.57,233.14,171.34Zm-19.51-10.79c-13,0-17.87,3.05-20.71,21.14l-.11.44L214,180.06c7.85-.87,10.9-2.72,12.21-9.26C228.24,161.43,222.68,160.55,213.63,160.55Z"/><path d="M287.21,208.84h-7.08l-13-24.74h-2.83l-19.84,24.74h-8L259,181.37l-13.51-25.29h7.08l11.55,22.45h3.38l18.2-22.45h7.63l-20.71,25.4Z"/><path d="M348.9,182.9c-3.38,23.11-10.35,27.25-26.37,27.25a133.42,133.42,0,0,1-17-1.31,84.86,84.86,0,0,1-.87,10.25l-2,12.53h-6.87l10.68-75.53H312l-1.09,12.32c7.09-7.52,17.44-13.62,24.85-13.62C348.46,154.78,351.84,162.08,348.9,182.9Zm-14.5-22c-5.56,0-14.93,4.58-23.54,13.08L306.72,204c5.78.22,10.25.33,13.52.33,15.7,0,19-3.16,21.69-22C344.21,165.79,343,160.88,334.4,160.88Z"/><path d="M370.16,195.87c-.87,5.23,1.2,7.52,6.43,7.52h5.67l.33,5.23c-1.85.76-6.43,1.09-8.72,1.09-7.63,0-11.88-4.69-10.79-12.86l9-64.31H379Z"/><path d="M441.66,182.79c-2.83,20.16-10.24,27.36-27.57,27.36-17.55,0-23.65-7.52-20.82-28,2.72-20.05,10-27.47,27.68-27.47S444.6,162.41,441.66,182.79Zm-41.2,0c-2.4,16.46,1,21.47,13.63,21.47,12.86,0,18.09-5.34,20.49-22.12,2.29-16.57-1.09-21.47-13.62-21.47C408.2,160.66,402.86,165.68,400.46,182.79Z"/><path d="M491,161.21h-2.51c-6.76,0-13.41,4.58-23.33,12.32l-4.9,35.31h-7l7.52-52.75h5.23L465,168.62c9.26-8.83,17.77-14,25.29-14h2.51Z"/><path d="M546.19,156.85l-7.41,52h-5.34l1-12c-6.76,8-15.91,13.3-24.63,13.3-13,0-16.35-7.74-13.3-28.12,3.38-23.11,10.25-27.36,26.7-27.36A149.34,149.34,0,0,1,546.19,156.85ZM534.53,191l4.14-30c-5.78-.22-10.24-.44-13.51-.44-15.8,0-19,3.27-21.8,22C501,199.14,502.27,204,510.88,204,518,204,526.13,199.47,534.53,191Z"/><path d="M569,195.87c-.76,5.34,1.2,7.52,6.54,7.52h8.72l.33,5.23a63.3,63.3,0,0,1-11,1.09c-8.83,0-12.64-4.91-11.44-13.3l4.9-34.88h-9.7l.65-4.91,9.81-.54,2.29-16h6.76l-2.29,16H592.4l-.87,5.45H573.77Z"/><path d="M597.09,208.84l7.41-52.75h6.87L604,208.84Zm15.37-75a1.91,1.91,0,0,1,2.07,2.4l-.87,6.43a2,2,0,0,1-2.4,2.07H608.1a2,2,0,0,1-2.18-2.4l1-6.43c.11-1.42.76-2.07,2.4-2.07Z"/><path d="M671.86,182.79C669,203,661.62,210.15,644.29,210.15c-17.55,0-23.65-7.52-20.82-28,2.72-20.05,10-27.47,27.68-27.47S674.81,162.41,671.86,182.79Zm-41.2,0c-2.4,16.46,1,21.47,13.62,21.47,12.86,0,18.09-5.34,20.49-22.12,2.29-16.57-1.09-21.47-13.62-21.47C638.4,160.66,633.06,165.68,630.66,182.79Z"/><path d="M734.1,169.38l-5.67,39.46h-6.87l5.34-38c1.09-7.52-1.2-10.14-7.3-10.14-7.08,0-14.06,4.69-24.3,12.64l-4.8,35.53h-7L691,156.09h5.45l-1.09,12c9.81-8.5,18.2-13.41,26.16-13.41C730.72,154.67,735.41,159.79,734.1,169.38Z"/><path d="M822.28,156.85l-7.41,52h-5.34l1-12c-6.76,8-15.91,13.3-24.63,13.3-13,0-16.35-7.74-13.3-28.12,3.38-23.11,10.25-27.36,26.7-27.36A149.34,149.34,0,0,1,822.28,156.85ZM810.62,191l4.14-30c-5.78-.22-10.24-.44-13.51-.44-15.8,0-19,3.27-21.8,22C777,199.14,778.36,204,787,204,794.05,204,802.23,199.47,810.62,191Z"/><path d="M883.43,169.38l-5.67,39.46H870.9l5.34-38c1.09-7.52-1.2-10.14-7.3-10.14-7.08,0-14.06,4.69-24.3,12.64l-4.8,35.53h-7l7.52-52.75h5.45l-1.09,12c9.81-8.5,18.2-13.41,26.16-13.41C880.05,154.67,884.74,159.79,883.43,169.38Z"/><path d="M939.46,208.84h-5.34l1.09-12.42c-6.54,7.19-15.8,13.73-25.83,13.73-11.34,0-15.15-8.07-12.21-28.12,3.27-23.22,10.35-27.36,26.16-27.36A133.58,133.58,0,0,1,940.44,156a86,86,0,0,1,1-10.14l1.85-13.3h7Zm-4.25-18,4-30c-5.67-.22-10-.44-13.62-.44-15.48,0-18.86,3.27-21.47,22.13-2.29,15.8-1.2,21.47,7,21.47C918.53,204,926.27,199.68,935.2,190.85Z"/><path d="M1065.24,169.38l-5.56,39.46h-6.87l5.45-38c1-7.52-1.74-10.14-7.74-10.14s-11.34,3.71-21.25,12.86l-5,35.31h-6.65l5.34-38c1-7.08-1.2-10.14-7.74-10.14-6.1,0-11.45,3.92-21.36,12.64l-4.9,35.53h-6.87l7.52-52.75h5.23l-1,11.88c8.94-8.61,16.13-13.3,23.65-13.3,8.72,0,13,4.69,12.53,12.64,8.61-8.28,15.7-12.64,22.89-12.64C1062.29,154.67,1066.54,160.12,1065.24,169.38Z"/><path d="M1077.88,208.84l7.41-52.75h6.87l-7.41,52.75Zm15.37-75a1.91,1.91,0,0,1,2.07,2.4l-.87,6.43a2,2,0,0,1-2.4,2.07h-3.16a2,2,0,0,1-2.18-2.4l1-6.43c.11-1.42.76-2.07,2.4-2.07Z"/><path d="M1153.64,169.38,1148,208.84h-6.87l5.34-38c1.09-7.52-1.2-10.14-7.3-10.14-7.09,0-14.06,4.69-24.31,12.64L1110,208.84h-7l7.52-52.75H1116l-1.09,12c9.81-8.5,18.2-13.41,26.16-13.41C1150.26,154.67,1154.94,159.79,1153.64,169.38Z"/><path d="M1166.17,208.84l7.41-52.75h6.87L1173,208.84Zm15.37-75a1.91,1.91,0,0,1,2.07,2.4l-.87,6.43a2,2,0,0,1-2.4,2.07h-3.16a2,2,0,0,1-2.18-2.4l1-6.43c.11-1.42.76-2.07,2.4-2.07Z"/><path d="M1241.92,169.38l-5.67,39.46h-6.87l5.34-38c1.09-7.52-1.2-10.14-7.3-10.14-7.08,0-14.06,4.69-24.3,12.64l-4.8,35.53h-7l7.52-52.75h5.45l-1.09,12c9.81-8.5,18.2-13.41,26.16-13.41C1238.54,154.67,1243.23,159.79,1241.92,169.38Z"/><path d="M1298.28,208.4c-1.85,14.17-10.35,23.11-27.9,23.76-3.49.22-13.19.11-19.07-1.2l.76-4.69c5.23.22,10.57.33,18.09,0,11.23-.65,19.07-5.34,21.14-16.78,1.09-6.1,2.07-10.9,3.92-14.28-6.87,8.72-16.79,14.93-26.38,14.93-12,0-16.24-7.3-13.08-28.12,3.49-23.22,10.46-27.36,26.16-27.36a152.53,152.53,0,0,1,23.54,2.18h.54Zm.11-47.41c-5.88-.22-10.46-.44-14.06-.44-15.48,0-18.75,3.27-21.58,22-2.4,16.46-1.09,21.47,7.52,21.47,7.09,0,15.15-4.69,23.65-13.19Z"/><path d="M1390.6,182.79c-2.83,20.16-10.24,27.36-27.57,27.36-17.55,0-23.65-7.52-20.82-28,2.72-20.05,10-27.47,27.68-27.47S1393.54,162.41,1390.6,182.79Zm-41.2,0c-2.4,16.46,1,21.47,13.63,21.47,12.86,0,18.09-5.34,20.49-22.12,2.29-16.57-1.09-21.47-13.62-21.47C1357.14,160.66,1351.8,165.68,1349.4,182.79Z"/><path d="M1433.11,136.58c-7.63,0-10.9,2.4-12,10.25l-1.31,9.26h17.88l-.87,5.45h-17.77l-7.63,54.5c-1.42,9.81-6.21,15-16,15-2.94,0-7.3-.22-11.55-.65l1-5.12h8.39c7.19,0,10.25-2.4,11.34-10.25l7.63-53.52h-9.59l.65-4.91,9.7-.54,1.42-10.25c1.31-9.81,6.32-15,16.57-15,3.49,0,10.25.22,14.28.65l-1,5.12Z"/><path d="M1513,171.34c-2,9.7-7.3,13-19.18,14.06l-21.69,2.07c-1,13.62,4.14,16.78,15.48,16.78a178.13,178.13,0,0,0,19.4-1.42l.54,4.69c-5,1.74-15.15,2.62-21.25,2.62-18,0-23.43-8.61-20.6-28.67,3.05-21.58,10.68-26.81,28.34-26.81C1509.19,154.67,1515.29,159.57,1513,171.34Zm-19.51-10.79c-13,0-17.87,3.05-20.71,21.14l-.11.44,21.15-2.07c7.85-.87,10.9-2.72,12.21-9.26C1508.1,161.43,1502.54,160.55,1493.5,160.55Z"/><path d="M1572.41,182.9C1569,206,1562.05,210.15,1546,210.15a133.36,133.36,0,0,1-17-1.31,84.87,84.87,0,0,1-.87,10.25l-2,12.53h-6.87L1530,156.09h5.45l-1.09,12.32c7.08-7.52,17.44-13.62,24.85-13.62C1572,154.78,1575.35,162.08,1572.41,182.9Zm-14.5-22c-5.56,0-14.93,4.58-23.54,13.08L1530.23,204c5.78.22,10.25.33,13.52.33,15.7,0,19-3.16,21.69-22C1567.72,165.79,1566.52,160.88,1557.91,160.88Z"/><path d="M1585.28,208.84l7.41-52.75h6.87l-7.41,52.75Zm15.37-75a1.91,1.91,0,0,1,2.07,2.4l-.87,6.43a2,2,0,0,1-2.4,2.07h-3.16a2,2,0,0,1-2.18-2.4l1-6.43c.11-1.42.76-2.07,2.4-2.07Z"/><path d="M1654.49,208.84h-5.34l1.09-12.42c-6.54,7.19-15.8,13.73-25.83,13.73-11.34,0-15.15-8.07-12.21-28.12,3.27-23.22,10.35-27.36,26.16-27.36a133.58,133.58,0,0,1,17.11,1.31,86,86,0,0,1,1-10.14l1.85-13.3h7Zm-4.25-18,4-30c-5.67-.22-10-.44-13.62-.44-15.48,0-18.86,3.27-21.47,22.13-2.29,15.8-1.2,21.47,7,21.47C1633.56,204,1641.3,199.68,1650.23,190.85Z"/><path d="M1721.08,171.34c-2,9.7-7.3,13-19.18,14.06l-21.69,2.07c-1,13.62,4.14,16.78,15.48,16.78a178.1,178.1,0,0,0,19.4-1.42l.54,4.69c-5,1.74-15.15,2.62-21.25,2.62-18,0-23.43-8.61-20.6-28.67,3.05-21.58,10.68-26.81,28.34-26.81C1717.27,154.67,1723.37,159.57,1721.08,171.34Zm-19.51-10.79c-13,0-17.87,3.05-20.71,21.14l-.11.44,21.14-2.07c7.85-.87,10.9-2.72,12.21-9.26C1716.18,161.43,1710.62,160.55,1701.57,160.55Z"/><path d="M1813.73,169.38l-5.56,39.46h-6.87l5.45-38c1-7.52-1.74-10.14-7.74-10.14s-11.34,3.71-21.25,12.86l-5,35.31h-6.65l5.34-38c1-7.08-1.2-10.14-7.74-10.14-6.1,0-11.44,3.92-21.36,12.64l-4.91,35.53h-6.87l7.52-52.75h5.23l-1,11.88c8.94-8.61,16.13-13.3,23.65-13.3,8.72,0,13,4.69,12.54,12.64,8.61-8.28,15.7-12.64,22.89-12.64C1810.79,154.67,1815,160.12,1813.73,169.38Z"/><path d="M1826.38,208.84l7.41-52.75h6.87l-7.41,52.75Zm15.37-75a1.91,1.91,0,0,1,2.07,2.4l-.87,6.43a2,2,0,0,1-2.4,2.07h-3.16a2,2,0,0,1-2.18-2.4l1-6.43c.11-1.42.76-2.07,2.4-2.07Z"/><path d="M1901.15,182.79c-2.83,20.16-10.25,27.36-27.58,27.36-17.55,0-23.65-7.52-20.82-28,2.72-20.05,10-27.47,27.68-27.47S1904.09,162.41,1901.15,182.79Zm-41.2,0c-2.4,16.46,1,21.47,13.62,21.47,12.86,0,18.09-5.34,20.49-22.12,2.29-16.57-1.09-21.47-13.62-21.47C1867.69,160.66,1862.35,165.68,1859.95,182.79Z"/><path d="M1921.75,195.87c-.87,5.23,1.2,7.52,6.43,7.52h5.67l.33,5.23c-1.85.76-6.43,1.09-8.72,1.09-7.63,0-11.88-4.69-10.79-12.86l9-64.31h6.87Z"/><path d="M1993.25,182.79c-2.83,20.16-10.25,27.36-27.58,27.36-17.55,0-23.65-7.52-20.82-28,2.72-20.05,10-27.47,27.68-27.47S1996.2,162.41,1993.25,182.79Zm-41.2,0c-2.4,16.46,1,21.47,13.62,21.47,12.86,0,18.09-5.34,20.49-22.12,2.29-16.57-1.09-21.47-13.62-21.47C1959.79,160.66,1954.45,165.68,1952.05,182.79Z"/><path d="M2049.28,208.4c-1.85,14.17-10.35,23.11-27.9,23.76-3.49.22-13.19.11-19.07-1.2l.76-4.69c5.23.22,10.57.33,18.09,0,11.23-.65,19.07-5.34,21.14-16.78,1.09-6.1,2.07-10.9,3.92-14.28-6.87,8.72-16.79,14.93-26.38,14.93-12,0-16.24-7.3-13.08-28.12,3.49-23.22,10.46-27.36,26.16-27.36a152.53,152.53,0,0,1,23.54,2.18h.54Zm.11-47.41c-5.88-.22-10.46-.44-14.06-.44-15.48,0-18.75,3.27-21.58,22-2.4,16.46-1.09,21.47,7.52,21.47,7.09,0,15.15-4.69,23.65-13.19Z"/><path d="M2067.92,208.84l7.41-52.75h6.87l-7.41,52.75Zm15.37-75a1.91,1.91,0,0,1,2.07,2.4l-.87,6.43a2,2,0,0,1-2.4,2.07h-3.16a2,2,0,0,1-2.18-2.4l1-6.43c.11-1.42.76-2.07,2.4-2.07Z"/><path d="M2138.55,157.07l-1.2,4.47a107,107,0,0,0-13.84-.87c-14,0-19.73,4.47-22,22s1.63,21.47,15.15,21.47a97.93,97.93,0,0,0,15.69-1.2l.54,4.8a62.16,62.16,0,0,1-17.33,2.4c-18.31,0-24.2-7.74-21.25-28s10.35-27.47,28.12-27.47C2127,154.67,2133.86,155.32,2138.55,157.07Z"/><path d="M2196.32,156.85l-7.41,52h-5.34l1-12c-6.76,8-15.91,13.3-24.63,13.3-13,0-16.35-7.74-13.3-28.12,3.38-23.11,10.25-27.36,26.71-27.36A149.32,149.32,0,0,1,2196.32,156.85ZM2184.65,191l4.14-30c-5.78-.22-10.25-.44-13.52-.44-15.8,0-19,3.27-21.8,22-2.4,16.57-1.09,21.47,7.52,21.47C2168.09,204,2176.26,199.47,2184.65,191Z"/><path d="M2215.83,195.87c-.87,5.23,1.2,7.52,6.43,7.52h5.67l.33,5.23c-1.85.76-6.43,1.09-8.72,1.09-7.63,0-11.88-4.69-10.79-12.86l9-64.31h6.87Z"/><path d="M2305.32,156.3l-.87,4.91c-6.54-.33-13.19-.54-20.49-.65-10.35-.11-14.28.22-15.26,6.87-.76,5.23,1.63,6.76,6.65,8.83l15.8,6.54c7.74,3.27,11.45,6.21,10.36,14.5-1.63,11.77-10,12.86-24.09,12.86-8.39,0-11.88-.54-19.73-1.53l.87-5.12a157.42,157.42,0,0,0,17.55.76c13.41-.22,17.66-1.31,18.53-7.63.87-5.34-2.07-6.54-7.08-8.61l-15.7-6.54c-7-3.05-11-6.21-9.92-14.61,1.53-10.57,8.61-12.42,21.8-12.21A185.16,185.16,0,0,1,2305.32,156.3Z"/><path d="M2326.46,195.87c-.76,5.34,1.2,7.52,6.54,7.52h8.72l.33,5.23a63.3,63.3,0,0,1-11,1.09c-8.83,0-12.64-4.91-11.45-13.3l4.9-34.88h-9.7l.65-4.91,9.81-.54,2.29-16h6.76l-2.29,16h17.88l-.87,5.45h-17.77Z"/><path d="M2397.53,208.84h-5.34l1.09-12.21c-9.26,8.94-17.22,13.51-25.18,13.51-9.59,0-13.84-5.34-12.53-14.6l5.56-39.46h7L2362.65,194c-1.09,7.19,1.31,10.14,7.63,10.14,7.08,0,13.3-4.58,22.89-13.41l4.9-34.66h6.87Z"/><path d="M2459.44,208.84h-5.34l1.09-12.42c-6.54,7.19-15.8,13.73-25.83,13.73-11.34,0-15.15-8.07-12.21-28.12,3.27-23.22,10.35-27.36,26.16-27.36a133.58,133.58,0,0,1,17.11,1.31,86,86,0,0,1,1-10.14l1.85-13.3h7Zm-4.25-18,4-30c-5.67-.22-10-.44-13.62-.44-15.48,0-18.86,3.27-21.47,22.13-2.29,15.8-1.2,21.47,7,21.47C2438.51,204,2446.25,199.68,2455.19,190.85Z"/><path d="M2478,208.84l7.41-52.75h6.87l-7.41,52.75Zm15.37-75a1.91,1.91,0,0,1,2.07,2.4l-.87,6.43a2,2,0,0,1-2.4,2.07H2489a2,2,0,0,1-2.18-2.4l1-6.43c.11-1.42.76-2.07,2.4-2.07Z"/><path d="M2551.76,171.34c-2,9.7-7.3,13-19.18,14.06l-21.69,2.07c-1,13.62,4.14,16.78,15.48,16.78a178.1,178.1,0,0,0,19.4-1.42l.54,4.69c-5,1.74-15.15,2.62-21.25,2.62-18,0-23.43-8.61-20.6-28.67,3.05-21.58,10.68-26.81,28.34-26.81C2547.94,154.67,2554,159.57,2551.76,171.34Zm-19.51-10.79c-13,0-17.87,3.05-20.71,21.14l-.11.44,21.14-2.07c7.85-.87,10.9-2.72,12.21-9.26C2546.85,161.43,2541.29,160.55,2532.25,160.55Z"/><path d="M2607.13,156.3l-.87,4.91c-6.54-.33-13.19-.54-20.49-.65-10.36-.11-14.28.22-15.26,6.87-.76,5.23,1.63,6.76,6.65,8.83l15.8,6.54c7.74,3.27,11.44,6.21,10.35,14.5-1.63,11.77-10,12.86-24.09,12.86-8.39,0-11.88-.54-19.73-1.53l.87-5.12a157.46,157.46,0,0,0,17.55.76c13.41-.22,17.66-1.31,18.53-7.63.87-5.34-2.07-6.54-7.09-8.61l-15.7-6.54c-7-3.05-11-6.21-9.92-14.61,1.53-10.57,8.61-12.42,21.8-12.21A185.23,185.23,0,0,1,2607.13,156.3Z"/><path d="M2621.85,197.18c2.07,0,2.62,1,2.4,2.83l-.87,6.32a2.49,2.49,0,0,1-2.83,2.51h-2.4c-2,0-2.83-1-2.51-2.83l.87-6.21c.22-1.74,1.09-2.62,2.83-2.62Z"/></g></g></svg>